<?xml version="1.0" standalone="no"?> 
<!DOCTYPE svg PUBLIC "-//W3C//DTD SVG 1.1//EN" "http://www.w3.org/Graphics/SVG/1.1/DTD/svg11.dtd" >
<svg xmlns="http://www.w3.org/2000/svg">
<defs>
  <font id="iconfont" horiz-adv-x="1020">
    <font-face font-family="iconfont"
      units-per-em="1020" ascent="1020"
      descent="0" />
    <missing-glyph horiz-adv-x="0" />
    <glyph glyph-name="Ascending_Sorting_Filled"
      unicode="&#xE001;"
      horiz-adv-x="1020" d="M25.5 877.2A2.0021961 2.0021961 0 1 1 29.325 795.6L110.925 795.6A2.0002 2.0002 0 1 1 110.925 877.2L29.325 877.2A2.0002 2.0002 0 0 1 25.5 877.2zM800.0624999999999 857.4375A2.0002 2.0002 0 0 1 763.7249999999999 816L763.7249999999999 312.375L672.5624999999999 403.5375A2.0002 2.0002 0 0 1 643.2375 416.2875A2.0002 2.0002 0 0 1 614.55 346.1625L775.8375 184.8750000000001L804.525 156.1875000000001L833.2124999999999 184.8750000000001L994.5 346.1625A2.0002 2.0002 0 1 1 936.4875 403.5375L845.3249999999999 312.375L845.3249999999999 816A2.0002 2.0002 0 0 1 803.8874999999999 857.4375A2.0002 2.0002 0 0 1 800.0624999999999 857.4375zM25.5 714A2.0021961 2.0021961 0 1 1 29.325 632.4000000000001L192.525 632.4000000000001A2.0002 2.0002 0 1 1 192.525 714L29.325 714A2.0002 2.0002 0 0 1 25.5 714zM25.5 550.8A2.0021961 2.0021961 0 1 1 29.325 469.2L274.125 469.2A2.0002 2.0002 0 1 1 274.125 550.8L29.325 550.8A2.0002 2.0002 0 0 1 25.5 550.8zM25.5 387.6A2.0021961 2.0021961 0 1 1 29.325 306L355.725 306A2.0002 2.0002 0 1 1 355.725 387.6L29.325 387.6A2.0002 2.0002 0 0 1 25.5 387.6zM25.5 224.4000000000001A2.0021961 2.0021961 0 1 1 29.325 142.8000000000001L498.5249999999999 142.8000000000001A2.0002 2.0002 0 1 1 498.5249999999999 224.4000000000001L29.325 224.4000000000001A2.0002 2.0002 0 0 1 25.5 224.4000000000001z" />
    <glyph glyph-name="Cafe"
      unicode="&#xE002;"
      horiz-adv-x="1020" d="M1186.5149999999999 86.1900000000001H692.325C814.2149999999999 170.34 895.3050000000001 309.0600000000002 901.935 466.6500000000001H999.8549999999998C1126.8449999999998 466.6500000000001 1229.8649999999998 580.38 1229.8649999999998 720.1200000000001S1126.8449999999998 973.08 999.855 973.08H902.955V976.65C902.955 1000.62 883.5749999999998 1020 859.605 1020H-27.285C-51.255 1020 -70.635 1000.62 -70.635 976.65V486.5400000000001C-70.635 320.7900000000001 13.005 173.9100000000002 139.9949999999999 86.1900000000001H-167.025C-190.995 86.1900000000001 -210.375 66.8100000000001 -210.375 42.8400000000001C-210.375 18.8700000000001 -190.995 -0.5099999999999 -167.025 -0.5099999999999H1187.0249999999999C1210.995 -0.5099999999999 1230.375 18.8700000000001 1230.375 42.8400000000001C1229.8649999999998 66.8100000000001 1210.4850000000001 86.1900000000001 1186.5149999999999 86.1900000000001zM999.855 886.89C1085.535 886.89 1143.1650000000002 800.7 1143.1650000000002 720.12S1085.535 553.35 999.855 553.35H902.9550000000002V886.89H999.855zM16.065 486.5400000000001V933.81H816.7649999999999V486.5400000000001C816.7649999999999 265.7100000000002 637.2449999999999 86.1900000000001 416.415 86.1900000000001S16.065 265.7100000000001 16.065 486.5400000000001z" />
    <glyph glyph-name="Descending_Sorting_Filled"
      unicode="&#xE003;"
      horiz-adv-x="1020" d="M25.5 877.2A2.0021961 2.0021961 0 1 1 29.325 795.6L498.5249999999999 795.6A2.0002 2.0002 0 1 1 498.5249999999999 877.2L29.325 877.2A2.0002 2.0002 0 0 1 25.5 877.2zM800.0624999999999 857.4375A2.0002 2.0002 0 0 1 763.7249999999999 816L763.7249999999999 312.375L672.5624999999999 403.5375A2.0002 2.0002 0 0 1 643.2375 416.2875A2.0002 2.0002 0 0 1 614.55 346.1625L775.8375 184.8750000000001L804.525 156.1875000000001L833.2124999999999 184.8750000000001L994.5 346.1625A2.0002 2.0002 0 1 1 936.4875 403.5375L845.3249999999999 312.375L845.3249999999999 816A2.0002 2.0002 0 0 1 803.8874999999999 857.4375A2.0002 2.0002 0 0 1 800.0624999999999 857.4375zM25.5 714A2.0021961 2.0021961 0 1 1 29.325 632.4000000000001L355.725 632.4000000000001A2.0002 2.0002 0 1 1 355.725 714L29.325 714A2.0002 2.0002 0 0 1 25.5 714zM25.5 550.8A2.0021961 2.0021961 0 1 1 29.325 469.2L274.125 469.2A2.0002 2.0002 0 1 1 274.125 550.8L29.325 550.8A2.0002 2.0002 0 0 1 25.5 550.8zM25.5 387.6A2.0021961 2.0021961 0 1 1 29.325 306L192.525 306A2.0002 2.0002 0 1 1 192.525 387.6L29.325 387.6A2.0002 2.0002 0 0 1 25.5 387.6zM25.5 224.4000000000001A2.0021961 2.0021961 0 1 1 29.325 142.8000000000001L110.925 142.8000000000001A2.0002 2.0002 0 1 1 110.925 224.4000000000001L29.325 224.4000000000001A2.0002 2.0002 0 0 1 25.5 224.4000000000001z" />
    <glyph glyph-name="Landmarks"
      unicode="&#xE004;"
      horiz-adv-x="1020" d="M725.2199999999998 963.9C674.2199999999998 990.42 619.1399999999999 1006.74 562.02 1009.8C552.8399999999999 1009.8 542.6399999999999 1009.8 533.4599999999998 1009.8C306 1009.8 122.4 825.1800000000001 122.4 597.72C122.4 488.58 166.26 384.5400000000001 242.76 308.0400000000001L484.5 32.6400000000001C508.98 6.1200000000001 549.78 3.0600000000001 577.3199999999999 27.5400000000001C579.3599999999999 29.5800000000002 580.3799999999999 30.6 582.4200000000001 32.6400000000001L824.1599999999999 308.0400000000001C835.3799999999999 319.26 894.54 402.9000000000001 897.5999999999999 408C1003.68 607.9200000000001 926.16 857.82 725.2199999999998 963.9zM879.24 575.28C874.1399999999999 507.96 849.6599999999999 442.6800000000001 808.8599999999999 389.6400000000001L807.8399999999999 387.6C798.6599999999999 375.36 788.46 364.1400000000001 778.26 353.9400000000001L533.4599999999998 75.4800000000001L289.68 352.92C279.48 363.12 269.28 375.36 259.08 387.6C212.16 447.78 187.68 522.2399999999999 187.68 598.7399999999999C187.68 790.4999999999999 342.72 945.5399999999998 534.48 945.5399999999998C542.6399999999999 945.5399999999998 550.8 945.5399999999998 558.96 944.5199999999998C749.7 931.26 892.5 766.02 879.24 575.28zM533.4599999999998 786.4200000000001L533.4599999999998 786.4200000000001C429.4199999999999 786.4200000000001 344.76 701.76 344.76 597.72C344.76 493.6800000000001 429.4199999999999 409.0200000000001 533.4599999999998 409.0200000000001S722.1599999999999 493.6800000000001 722.1599999999999 597.72C721.1400000000001 701.76 637.5 786.4200000000001 533.4599999999998 786.4200000000001zM533.4599999999998 475.3200000000001L533.4599999999998 475.3200000000001C465.12 475.3200000000001 410.04 530.4000000000001 410.04 598.74S465.12 722.1600000000001 533.4599999999998 722.1600000000001S656.8799999999999 667.0799999999999 656.8799999999999 598.74C656.8799999999999 530.4000000000001 601.8 475.3200000000001 533.4599999999998 475.3200000000001z" />
    <glyph glyph-name="add-c"
      unicode="&#xE005;"
      horiz-adv-x="1020" d="M510 1020C228.48 1020 0 791.52 0 510S228.48 0 510 0S1020 228.48 1020 510S791.52 1020 510 1020zM738.4799999999999 456.96L738.4799999999999 456.96H577.32V281.5200000000001C577.32 248.2000000000001 542.6400000000001 221.6800000000001 509.3200000000001 221.6800000000001S441.3200000000001 248.2000000000002 441.3200000000001 281.5200000000001V456.96H281.52C247.52 456.96 220.32 484.1600000000001 220.32 518.1600000000001S247.52 579.36 281.52 579.36H441.3200000000001V738.48C441.3200000000001 771.12 476.6800000000001 798.32 509.3200000000001 798.32S577.32 771.8000000000001 577.32 738.48V578.6800000000001H738.48C772.48 578.6800000000001 799.6800000000001 551.48 799.6800000000001 517.48S772.4799999999999 456.96 738.4799999999999 456.96z" />
    <glyph glyph-name="add-row"
      unicode="&#xE006;"
      horiz-adv-x="1020" d="M39.2307692307691 894.9519230769231C15.6923076923076 894.9519230769231 -1e-13 879.2596153846154 -1e-13 855.7211538461538L-1e-13 384.951923076923C-1e-13 361.4134615384615 15.6923076923076 345.7211538461538 39.2307692307691 345.7211538461538L172.8605769230768 345.7211538461538C180.7067307692307 373.1826923076923 188.0624999999999 400.6442307692307 199.8317307692307 424.1826923076923L78.4615384615384 424.1826923076923L78.4615384615384 816.4903846153846L941.5384615384614 816.4903846153846L941.5384615384614 424.1826923076923L816.4903846153845 424.1826923076923C828.2596153846154 400.6442307692307 839.5384615384614 373.1826923076923 843.4615384615385 345.7211538461538L980.7692307692308 345.7211538461538C1004.3076923076922 345.7211538461538 1020.0000000000002 361.4134615384615 1020.0000000000002 384.951923076923L1020.0000000000002 855.7211538461538C1020.0000000000002 879.2596153846154 1004.3076923076922 894.9519230769231 980.7692307692308 894.9519230769231L39.2307692307691 894.9519230769231zM510 533.2932692307692C360.9230769230768 533.2932692307692 242.7403846153846 412.4134615384615 242.7403846153846 267.2596153846154C242.7403846153846 122.1057692307692 360.9230769230768 -1e-13 510 -1e-13C659.076923076923 -1e-13 777.2596153846154 122.1057692307692 777.2596153846154 267.2596153846154C777.2596153846154 412.4134615384615 659.076923076923 533.2932692307692 510 533.2932692307692zM470.7692307692307 424.1826923076923L549.2307692307692 424.1826923076923L549.2307692307692 306.4903846153846L666.9230769230769 306.4903846153846L666.9230769230769 228.0288461538461L549.2307692307692 228.0288461538461L549.2307692307692 110.3365384615385L470.7692307692307 110.3365384615385L470.7692307692307 228.0288461538461L353.076923076923 228.0288461538461L353.076923076923 306.4903846153846L470.7692307692307 306.4903846153846L470.7692307692307 424.1826923076923z" />
    <glyph glyph-name="age"
      unicode="&#xE007;"
      horiz-adv-x="1020" d="M255 935L255 850L212.5 850C165.5375 850 127.5 811.9625 127.5 765L127.5 170C127.5 123.0375 165.5375 85 212.5 85L807.5 85C854.4625 85 892.5 123.0375 892.5 170L892.5 765C892.5 811.9625 854.4625 850 807.5 850L765 850L765 935L680 935L680 850L340 850L340 935L255 935zM212.5 637.5L807.5 637.5L807.5 170L212.5 170L212.5 637.5zM510 595L382.5 467.5L637.5 467.5L510 595zM382.5 382.5L510 255L637.5 382.5L382.5 382.5z" />
    <glyph glyph-name="airport-filled"
      unicode="&#xE008;"
      horiz-adv-x="1020" d="M964.21875 1016.175C887.45355 1016.175 756.5875500000001 924.3495 729.61875 895.6875L591.9187499999999 757.9875L102.31875 824.2875C95.97435 825.1443 89.61465 822.5637 85.10625 817.9125L15.61875 746.5125C10.86555 741.6165000000001 9.07035 734.6958 10.51875 728.0250000000001C11.96715 721.3542 16.26645 715.8513 22.63125 713.3625L400.03125 565.4625000000001L205.59375 367.2000000000001L111.88125 367.2000000000001C107.04645 367.2000000000001 102.16575 365.2620000000001 98.49375 362.1L16.89375 293.25C11.05935 288.2928000000001 8.76435 280.2960000000001 10.51875 272.85C12.27315 265.404 17.75565 259.3860000000001 25.18125 257.5500000000002L219.61875 209.7375000000001L267.4312500000001 15.3000000000001C269.14485 8.364 274.64265 2.7591000000001 281.45625 0.6375C288.24945 -1.5452999999999 295.2364500000001 0.3876 300.58125 5.1L370.06875 66.3000000000001C374.4547500000001 70.1760000000001 377.08125 75.7452000000001 377.08125 81.6L377.08125 195.0750000000001L577.25625 390.1500000000001L723.24375 12.7500000000001C725.7121500000001 6.3852000000002 731.23545 2.0859 737.90625 0.6375C739.3546499999999 0.3315 740.92035 1e-13 742.36875 1e-13C747.6319500000001 1e-13 752.53815 2.0043000000001 756.39375 5.7375000000001L827.7937499999999 75.225C832.42455 79.7334 835.02555 86.0319000000001 834.1687499999999 92.4375000000001L767.86875 582.0375L905.56875 719.7375C933.76155 747.9099000000001 1072.1296499999999 934.7943 1009.48125 1000.2375C998.40405 1010.8251 983.12955 1016.175 964.21875 1016.175z" />
    <glyph glyph-name="airport"
      unicode="&#xE009;"
      horiz-adv-x="1020" d="M510 935C463.25 935 425 896.75 425 850L425 672.03125L127.5 378.515625L127.5 297.5L425 443.59375L425 264.296875L340 170L340 85L467.5 127.5L552.5 127.5L680 85L680 170L595 264.296875L595 443.59375L892.5 297.5L892.5 378.515625L595 672.03125L595 850C595 896.75 556.75 935 510 935z" />
    <glyph glyph-name="arrival"
      unicode="&#xE00A;"
      horiz-adv-x="1020" d="M106.25 846.015625C106.25 846.015625 101.46875 718.25 114.21875 637.5C118.46875 595 280.234375 510.5312499999999 365.234375 480.78125L410.390625 466.171875L156.71875 247.03125C152.46875 242.7812499999999 153.53125 233.75 162.03125 233.75L233.75 212.5C238 212.5 246.5 212.2343749999999 255 216.484375L613.59375 403.75L661.40625 389.140625C650.0672075 380.610195 641.484375 368.563485 641.484375 353.28125C641.484375 327.4619475 662.1494475 305.46875 687.96875 305.46875C713.7880525 305.46875 735.78125 327.4619475 735.78125 353.28125C735.78125 358.213035 734.5405475 362.099235 733.125 366.5625L803.515625 343.984375C854.515625 326.9843750000001 905.25 343.71875 913.75 369.21875C926.5 407.46875 858.5 479.71875 807.5 496.71875L237.734375 676.015625L148.75 832.734375C123.25 841.234375 106.25 846.015625 106.25 846.015625zM370.546875 836.71875C369.484375 835.65625 369.21875 833 369.21875 828.75L411.71875 658.75L565.78125 612.265625L467.5 803.515625C463.25 807.765625 454.7499999999999 815.46875 446.25 815.46875L378.515625 836.71875C374.265625 836.71875 371.609375 837.78125 370.546875 836.71875z" />
    <glyph glyph-name="arrow-down-blue"
      unicode="&#xE00B;"
      horiz-adv-x="1020" d="M510.4473688684212 0C477.0435964473685 -0.478618 444.8325422368423 12.4058036842106 420.9736846578948 35.7894736842105L-330.6052627105263 787.3684210526316C-362.2514725947367 819.0146314736842 -374.6107244452631 865.1399866947369 -363.0274077105263 908.3695134210526C-351.4440908684209 951.599039968421 -317.6779868894737 985.3651439473684 -274.4484603421052 996.9484607894736C-231.2189336157894 1008.5317775242104 -185.0935783947368 996.1725256736842 -153.4473679736842 964.5263157894736L510.4473688684212 302.4210526315789L1173.447368868421 966.3157894736842C1205.0935792894738 997.9619993578946 1251.2189348684212 1010.321251208421 1294.4484603421054 998.7379344736842C1337.6779876052633 987.154617631579 1371.444092657895 953.3885136526316 1383.0274077105264 910.1589871052632C1394.6107245526316 866.9294603789474 1382.251474026316 820.8041051578948 1350.6052636052634 789.1578947368421L599.0263162368421 37.578947368421C575.6803397105264 13.7596407368421 543.7991177105266 0.2342743157894 510.4473688684212 0L510.4473688684212 0z" />
    <glyph glyph-name="arrow-down"
      unicode="&#xE00C;"
      horiz-adv-x="1020" d="M510.2549999999999 224.4000000000001A7 7 0 0 0 459.2549999999999 244.8000000000001L30.855 673.2A7 7 0 1 0 131.835 774.1800000000001L510.2549999999999 396.78L888.1649999999998 775.2A7 7 0 1 0 989.145 674.22L560.745 245.8200000000001A7 7 0 0 0 510.2549999999999 224.4000000000001z" />
    <glyph glyph-name="arrow-l-left"
      unicode="&#xE00D;"
      horiz-adv-x="1020" d="M226.3125 497.25L408 315.5625000000001C411.1875 312.375 414.375 309.1875000000001 420.75 309.1875000000001C423.9375 309.1875000000001 430.3125000000001 312.3750000000001 433.5000000000001 315.5625000000001C439.875 321.9375 439.875 334.6875000000001 433.5000000000001 341.0625000000001L280.5000000000001 494.0625000000001H780.9375C787.3125 494.0625000000001 793.6875 500.4375000000001 793.6875 506.8125000000001C796.875 516.3750000000001 790.5 525.9375 780.9375 525.9375H280.5L433.5 678.9375C436.6875 685.3125 436.6875 691.6875 433.5 698.0625C427.125 704.4375 417.5625 707.625 408 701.25L226.3125 519.5625C216.75 516.375 219.9375 506.8125 226.3125 497.25z" />
    <glyph glyph-name="arrow-l-right"
      unicode="&#xE00E;"
      horiz-adv-x="1020" d="M793.6875 522.75L612 704.4375C605.6250000000001 710.8125 592.875 707.625 586.5 701.25C583.3125 694.875 583.3125 688.5 586.5 682.125L739.5 529.125H242.25C232.6875 525.9375 226.3125 516.375 226.3125 506.8125C226.3125 500.4375 232.6875 494.0625 239.0625 494.0625H739.5L586.5 341.0625C580.125 334.6875 580.125 321.9374999999999 586.5 315.5625C589.6875000000001 312.3749999999999 592.875 309.1875 599.25 309.1875C602.4375 309.1875 608.8125 312.375 611.9999999999999 315.5625L793.6874999999999 497.2499999999999C800.0625 506.8125 803.25 516.375 793.6875 522.75z" />
    <glyph glyph-name="arrow-left"
      unicode="&#xE00F;"
      horiz-adv-x="1020" d="M234.6 510.0000000000001A7 7 0 0 0 255.0000000000001 561L683.4 989.4A7 7 0 1 0 784.38 888.4200000000001L406.98 510.0000000000001L785.4 132.0900000000002A7 7 0 0 0 684.42 31.11L256.02 459.51A7 7 0 0 0 234.6 510.0000000000001z" />
    <glyph glyph-name="arrow-right"
      unicode="&#xE010;"
      horiz-adv-x="1020" d="M785.3999999999999 510.0000000000001A7 7 0 0 0 765 459L336.6 30.6A7 7 0 0 0 235.62 131.5800000000002L613.02 510.0000000000001L234.6 887.9100000000001A7 7 0 0 0 335.58 988.89L763.98 560.49A7 7 0 0 0 785.3999999999999 510.0000000000001z" />
    <glyph glyph-name="arrow-up"
      unicode="&#xE011;"
      horiz-adv-x="1020" d="M509.7449999999999 795.6A7 7 0 0 0 560.745 775.2L989.145 346.8000000000002A7 7 0 1 0 888.1649999999998 245.8200000000001L509.7449999999999 623.22L131.835 244.8000000000001A7 7 0 0 0 30.855 345.7800000000001L459.2549999999999 774.1800000000001A7 7 0 0 0 509.7449999999999 795.6z" />
    <glyph glyph-name="arrow_down"
      unicode="&#xE012;"
      horiz-adv-x="1020" d="M583.44 213.5200000000001L992.12 631.72C1029.52 670.48 1029.52 732.36 992.12 771.12L958.12 805.8000000000001C921.4 843.2 860.8800000000001 843.8800000000001 823.4800000000001 807.1600000000001C822.8000000000001 806.48 822.8000000000001 806.48 822.1200000000001 805.8000000000001L509.9999999999999 486.88L197.88 805.8C161.16 843.2 100.64 843.88 63.24 807.16C62.56 806.48 62.56 806.48 61.88 805.8L27.88 771.12C-9.52 732.3599999999999 -9.52 670.48 27.88 631.72L436.56 213.5200000000001C455.6 193.8000000000001 482.8 183.6 509.9999999999999 185.6400000000001C537.2 183.6 564.4 194.48 583.44 213.5200000000001z" />
    <glyph glyph-name="arrow_left"
      unicode="&#xE013;"
      horiz-adv-x="1020" d="M212.16 436.5600000000001L650.08 27.88C691.5600000000001 -9.52 754.8000000000001 -9.52 796.2800000000001 27.88L833.0000000000001 61.88C870.4000000000001 95.88 873.1200000000001 154.3599999999999 839.1200000000001 191.76C837.0800000000002 193.8 835.0400000000002 195.8399999999999 833.0000000000001 197.88L497.76 510L831.64 821.44C869.04 855.44 871.76 913.92 837.76 951.32C835.72 953.36 833.6800000000001 955.4 831.64 957.44L794.92 991.44C753.4399999999999 1028.84 690.1999999999999 1028.84 648.7199999999999 991.44L210.7999999999999 583.44C190.3999999999999 564.4000000000001 179.5199999999999 537.88 180.8799999999999 510C180.2 482.12 191.08 455.6 212.16 436.5600000000001z" />
    <glyph glyph-name="arrow_left_2"
      unicode="&#xE014;"
      horiz-adv-x="1020" d="M6.12 474.64C7.48 471.92 8.84 468.52 10.88 465.8000000000001C12.24 463.76 13.6 461.04 14.96 459C18.36 453.5600000000001 21.76 448.8000000000002 26.52 444.04L321.64 149.6C359.04 114.2400000000001 417.5199999999999 116.28 452.8799999999999 153.68C486.2 189.04 486.2 244.8000000000001 452.8799999999999 280.8400000000001L315.5199999999999 417.5200000000001H926.16C977.16 417.5200000000001 1018.64 459 1018.64 510C1018.64 561 977.16 602.48 926.16 602.48H315.5199999999999L452.1999999999998 739.1600000000001C486.1999999999998 777.24 483.4799999999998 835.72 445.3999999999999 870.4000000000001C410.0399999999999 902.36 356.32 902.36 320.9599999999999 870.4000000000001L26.52 575.96C22.44 571.8800000000001 18.36 567.1200000000001 14.96 561.6800000000001C13.6 559.6400000000001 12.24 556.9200000000001 10.88 554.8800000000001C8.84 552.1600000000001 7.48 548.76 6.12 545.36C4.76 542.64 4.08 539.24 3.4 535.8399999999999S1.36 530.4000000000001 1.36 527.68C-0.68 515.44 -0.68 503.2 1.36 491.64C2.04 488.92 2.72 486.2 3.4 483.48S5.44 477.36 6.12 474.64z" />
    <glyph glyph-name="arrow_right"
      unicode="&#xE015;"
      horiz-adv-x="1020" d="M807.8399999999999 583.44L370.6 992.12C329.12 1029.52 265.88 1029.52 224.4 992.12L187.68 958.12C150.28 924.12 147.56 865.64 181.56 828.24C183.6 826.2 185.64 824.16 187.68 822.12L522.2399999999999 510L188.36 198.5600000000001C150.96 164.5600000000001 148.24 106.08 182.24 68.68C184.28 66.6399999999999 186.32 64.6 188.36 62.56L225.08 28.5599999999999C266.56 -8.8400000000001 329.8 -8.8400000000001 371.28 28.5599999999999L809.1999999999999 437.2399999999999C829.5999999999999 456.2799999999999 840.4799999999999 482.8 838.4399999999999 510.6799999999999C839.12 537.88 828.2399999999999 564.4000000000001 807.8399999999999 583.44z" />
    <glyph glyph-name="arrow_right_2"
      unicode="&#xE016;"
      horiz-adv-x="1020" d="M1013.8800000000002 545.36C1012.5200000000002 548.0800000000002 1011.16 551.48 1009.1200000000002 554.2C1007.7600000000002 556.24 1006.4 558.96 1005.0400000000004 561C1001.6400000000002 566.44 997.5600000000004 571.2 993.4800000000002 575.28L698.3600000000001 870.4C660.2800000000002 905.08 601.8 901.68 567.1200000000001 863.6C535.1600000000001 828.24 535.1600000000001 774.52 567.1200000000001 739.1600000000001L703.8000000000002 602.48H93.1600000000001C42.1600000000001 602.48 0.6800000000001 561 0.6800000000001 510C0.6800000000001 459 42.1600000000001 417.5200000000001 93.1600000000001 417.5200000000001H703.8L567.1199999999999 280.8400000000002C533.1199999999999 242.7600000000001 535.8399999999999 184.2800000000001 573.9200000000001 149.6000000000001C609.28 117.6400000000001 663 117.6400000000001 698.3599999999999 149.6000000000001L993.48 444.7200000000001C997.56 448.8000000000002 1001.6400000000002 453.5600000000001 1005.04 459C1006.3999999999997 461.04 1007.7600000000002 463.76 1009.1199999999998 465.8000000000001C1011.16 468.5200000000001 1012.52 471.9200000000001 1013.8799999999998 474.64C1015.24 477.36 1015.9199999999998 480.76 1016.6 484.1600000000001S1018.6400000000002 489.6 1019.32 492.3200000000001C1021.3600000000002 504.5600000000001 1021.3600000000002 516.8 1019.32 528.36C1018.6400000000002 531.0800000000002 1017.96 533.8 1016.6 536.52S1014.56 542.64 1013.8800000000002 545.36z" />
    <glyph glyph-name="balcony"
      unicode="&#xE017;"
      horiz-adv-x="1020" d="M972.3946875 127.5H971.9803125V350.7046875000001C980.5865625000002 350.94375 987.5034375 357.8925000000001 987.5034375 366.5625C987.5034375 375.3759375 980.3793749999998 382.5 971.5659375 382.5H716.9803125000001V780.9375C716.9803125000001 895.1775 624.0328125000001 988.125 509.7928125 988.125C395.5528125 988.125 302.6053125000001 895.1775 302.6053125000001 780.9375V382.5H47.6053125C38.8078125 382.5 31.6678125 375.3759375 31.6678125 366.5625S38.8078125 350.625 47.6053125 350.625V127.5C47.6053125 127.468125 47.62125 127.4521875 47.62125 127.4203124999999C39.015 127.1971875000001 32.0821875 120.2325 32.0821875 111.5625C32.0821875 102.7490625 39.2221875 95.625 48.0196875 95.625H111.3553125V47.8125C111.3553125 38.9990625 118.4953125 31.875 127.2928125 31.875S143.2303125 38.9990625 143.2303125 47.8125V95.625H318.5428125000001H493.8553125V47.8125C493.8553125 38.9990625 500.9953125 31.875 509.7928125 31.875S525.7303125000001 38.9990625 525.7303125000001 47.8125V95.625H701.0428125000001H892.2928125000001V47.8125C892.2928125000001 38.9990625 899.4168750000001 31.875 908.2303125 31.875S924.1678125 38.9990625 924.1678125 47.8125V95.625H972.3946875C981.2081250000002 95.625 988.3321875 102.7490625 988.3321875 111.5625S981.2081250000002 127.5 972.3946875 127.5zM685.1053125000001 286.875V255H334.4803125000001V286.875H685.1053125000001zM334.4803125000001 318.75V350.625H685.1053125000001V318.75H334.4803125000001zM940.1053125 255H716.9803125000001V286.875H940.1053125V255zM302.6053125000001 255H79.4803125V286.875H302.6053125000001V255zM79.4803125 223.125H302.6053125000001V191.25H79.4803125V223.125zM334.4803125000001 223.125H685.1053125000001V191.25H334.4803125000001V223.125zM716.9803125000001 223.125H940.1053125V191.25H716.9803125000001V223.125zM940.1053125 350.625V318.75H716.9803125000001V350.625H940.1053125zM334.4803125000001 780.9375C334.4803125000001 877.5984375 413.1318750000001 956.25 509.7928125 956.25S685.1053125000001 877.5984375 685.1053125000001 780.9375V382.5H334.4803125000001V780.9375zM302.6053125000001 350.625V318.75H79.4803125V350.625H302.6053125000001zM79.4803125 159.375H302.6053125000001V127.5H79.4803125V159.375zM334.4803125000001 127.5V159.375H685.1053125000001V127.5H334.4803125000001zM716.9803125000001 127.5V159.375H940.1053125V127.5H716.9803125000001zM366.3553125000001 557.8125C366.3553125000001 540.2084235991435 380.6262360991435 525.9375 398.2303125000001 525.9375C415.8343889008566 525.9375 430.1053125000001 540.2084235991435 430.1053125000001 557.8125C430.1053125000001 575.4165764008565 415.8343889008566 589.6875 398.2303125000001 589.6875C380.6262360991435 589.6875 366.3553125000001 575.4165764008565 366.3553125000001 557.8125z" />
    <glyph glyph-name="bangkok_1"
      unicode="&#xE018;"
      horiz-adv-x="1020" d="M1011.1599999999999 93.16V121.7199999999999L997.56 134.6399999999999V143.48L989.4 150.9599999999999V166.5999999999999L984.6400000000002 172.0399999999999V180.1999999999999L975.12 182.92V186.9999999999999L981.92 193.12V198.56L976.48 201.9599999999999V210.8L968.32 214.8799999999999L973.08 221.6799999999998V231.2000000000001H966.28V244.8000000000001L969 248.88V255H961.52V261.8000000000002L959.48 263.8400000000001V298.52L962.2 301.24V310.08H956.7599999999998V316.2000000000001H960.8399999999998V323H956.08V330.48H958.8V336.6H953.3599999999998L957.4399999999998 340.68V348.8400000000001L952.68 352.92V357.68L956.08 359.7199999999999V365.8400000000001L950.6399999999998 368.5600000000001H947.9199999999998L950.6399999999998 371.2800000000001V380.8000000000002L947.9199999999998 382.8400000000002L950.6399999999998 386.2400000000001V396.4400000000001L947.9199999999998 398.48L950.6399999999998 401.8800000000001V412.0800000000001L947.9199999999998 414.12L950.6399999999998 417.5200000000001V427.7200000000001L947.9199999999998 429.76L950.6399999999998 433.1600000000001V443.36L947.2399999999998 446.0800000000001L947.2399999999998 446.0800000000001L949.28 448.12C949.28 448.12 946.56 466.48 935.68 467.8400000000001V470.5600000000002H933.6399999999998V476C933.6399999999998 476 937.0399999999998 477.36 935.68 482.8000000000001C933.6399999999998 487.5600000000001 932.28 493 931.6 497.76H930.92C931.6 502.5200000000001 930.92 506.6 929.56 511.36C928.2000000000002 506.6 928.2000000000002 502.5200000000001 928.2000000000002 497.76H927.5200000000002C926.8400000000001 492.3200000000001 925.4800000000002 487.5600000000001 923.4400000000002 482.8000000000001C922.0800000000002 478.04 925.4800000000004 476 925.4800000000004 476V469.88H923.4400000000002V467.16C912.5600000000002 465.8 909.8400000000001 447.44 909.8400000000001 447.44L911.8800000000005 445.3999999999999L911.8800000000005 445.3999999999999L908.4800000000004 442.6799999999999V432.4799999999999L911.2000000000004 429.08L908.4800000000004 427.0399999999999V416.8399999999999L911.2000000000004 413.44L908.4800000000004 411.3999999999999V401.2L911.2000000000004 397.8L908.4800000000004 395.76V385.56L911.2000000000004 382.1600000000001L908.4800000000004 380.12V369.92L911.2000000000004 367.2H908.4800000000004L903.0400000000002 364.4799999999999V358.3599999999999L906.4400000000002 356.3199999999998V351.5599999999999L901.6800000000002 347.4799999999999V339.3199999999998L905.7600000000004 335.2399999999999H900.3200000000002V329.1199999999999H903.0400000000002V321.6399999999999H898.2800000000003V314.8399999999999H902.3600000000002V308.7199999999999H896.9200000000002V299.8799999999999L899.6400000000002 297.1599999999999V262.4799999999999L897.6000000000001 260.44V253.6399999999999H890.1200000000002V247.5199999999999L892.8400000000003 243.44V229.8399999999999H886.0400000000002V220.9999999999999L890.8000000000002 214.1999999999999L882.6400000000002 210.12V201.28L877.2000000000002 197.88V192.4400000000001L884.0000000000001 186.3199999999999V182.24L874.4800000000001 179.52V171.3599999999999L869.7200000000001 165.92V150.28L864.9600000000002 146.2000000000001V149.6L860.2 154.36V161.84L852.0400000000001 163.88V167.9599999999999L858.1600000000001 173.4V178.16L853.4000000000001 181.56V189.7199999999999L845.9200000000001 193.12L850.0000000000001 199.24V206.7199999999999H843.88V218.28L846.6 221.68V227.12H840.48V233.24L838.44 234.6V264.5200000000001L840.48 266.5600000000001V274.7200000000001H836.4V278.8000000000002H840.4799999999999V284.9200000000001H836.4V291.7200000000001H838.4399999999999V297.1600000000001H833.68L837.0799999999999 300.5600000000001V307.36L833 310.76V314.8400000000001L836.4 316.88V322.32L831.64 325.04H828.92L830.9599999999999 327.08V335.92L828.2399999999999 337.9599999999999L830.9599999999999 340.68V349.52L828.2399999999999 351.56L830.9599999999999 354.28V363.12L828.2399999999999 365.1600000000001L830.9599999999999 367.88V376.7199999999999L828.2399999999999 378.76L830.9599999999999 381.48V390.32L828.2399999999999 392.3599999999999L828.2399999999999 392.3599999999999L829.6 394.4C829.6 394.4 826.88 410.04 818.04 411.4V414.12H816V419.5600000000001C816 419.5600000000001 818.72 420.9200000000001 818.04 425C816 429.08 814.64 433.8400000000001 813.96 438.6H813.2800000000001C813.2800000000001 442.68 813.2800000000001 446.76 811.9200000000001 450.84C811.24 446.76 810.56 442.68 810.56 438.6H809.88C809.2 433.8400000000001 807.84 429.08 805.8000000000001 425C804.44 420.9200000000001 807.84 419.5600000000001 807.84 419.5600000000001V414.12H805.8000000000001V411.4C796.9600000000002 410.04 794.24 394.4 794.24 394.4L796.2800000000001 392.36L796.2800000000001 392.36L793.56 390.3200000000001V381.48L796.2800000000001 378.76L793.56 376.7200000000001V367.8800000000001L796.2800000000001 365.1600000000001L793.56 363.12V354.2800000000001L796.2800000000001 351.5600000000001L793.56 349.5200000000001V340.6800000000001L796.2800000000001 337.9600000000001L793.56 335.9200000000001V327.0800000000001L795.6 325.0400000000001H792.88L788.1199999999999 322.3200000000001V316.8800000000001L791.5199999999999 314.8400000000002V310.7600000000001L787.4399999999999 307.3600000000002V300.5600000000002L790.8399999999999 297.1600000000001H786.0799999999999V291.7200000000002H788.1199999999999V284.9200000000002H783.3599999999999V278.1200000000001H787.4399999999998V272.6800000000002H782.6799999999998V264.5200000000002L784.7199999999998 262.4800000000002V232.5600000000002L782.6799999999998 231.2000000000002V225.0800000000001H776.5599999999998V219.6400000000001L779.2799999999999 216.2400000000001V204.6800000000001H773.1599999999999V197.2000000000002L777.2399999999998 191.0800000000001L769.7599999999998 187.6800000000001V179.5200000000001L764.9999999999998 176.12V171.36L771.1199999999998 165.9200000000001V161.8400000000002L762.9599999999998 159.8000000000001V152.3200000000002L758.1999999999998 147.5600000000002V133.9600000000002L750.7199999999998 127.8400000000002V119.6800000000002L750.0399999999998 119.0000000000002V153.6800000000002L735.7599999999999 169.3200000000002L726.92 160.4800000000001L722.1599999999999 166.6000000000003L728.28 174.7600000000002L722.8399999999999 181.5600000000003V201.2800000000003L714 206.7200000000003L718.76 216.2400000000002L709.24 225.0800000000003V237.3200000000003L714.68 244.8000000000002L710.6 250.2400000000003V264.5200000000002L705.8399999999999 274.7200000000002L701.0799999999999 269.9600000000002L697.68 277.4400000000001L692.92 271.3200000000001V307.36H686.1199999999999V294.4400000000001L672.52 346.8000000000002V363.12H667.76V384.2000000000001L663.6800000000001 389.64L659.6 385.5600000000001L652.8 391.6800000000001L647.36 385.5600000000001L642.6 392.36L637.16 386.24L632.4 392.36V408L628.32 414.12L623.5600000000001 410.0400000000001V435.2000000000001C623.5600000000001 435.2000000000001 613.36 446.08 613.36 446.08S613.36 456.28 613.36 456.28L601.8 463.0799999999999L607.9200000000001 468.52V480.76L599.08 486.1999999999999L603.16 492.3199999999999L591.6 501.84L596.36 509.3199999999999V515.44L588.1999999999999 523.6L592.96 527.68V534.48L583.4399999999999 539.24L588.1999999999999 543.3199999999999V552.8399999999999L585.4799999999999 556.92C585.4799999999999 556.92 595 571.88 588.1999999999999 582.0799999999999C583.4399999999999 588.88 581.4 597.04 583.4399999999999 605.2C583.4399999999999 612.68 583.4399999999999 632.4 583.4399999999999 632.4S582.76 645.3199999999999 587.52 648.04C590.92 650.0799999999999 592.28 654.1599999999999 592.28 658.24C590.92 655.52 588.88 653.4799999999999 586.1599999999999 652.1199999999999C582.0799999999999 650.76 580.0399999999998 644.6399999999999 580.0399999999998 644.6399999999999V652.8C580.0399999999998 656.2 581.3999999999999 659.6 584.7999999999998 661.64C588.1999999999999 663.68 589.56 667.76 588.8799999999999 671.16C588.8799999999999 671.16 587.5199999999999 666.4 584.1199999999998 665.72C581.3999999999997 665.04 579.3599999999998 663 577.9999999999998 660.96V667.76L574.5999999999998 669.8L577.3199999999998 673.88V682.72L572.5599999999998 686.1199999999999V698.3599999999999L569.1599999999999 702.4399999999999V726.92C570.5199999999999 733.72 568.4799999999999 740.52 564.3999999999997 745.28V749.3599999999999C565.0799999999997 749.3599999999999 565.7599999999998 750.04 565.7599999999998 750.72C566.4399999999998 752.76 561.6799999999998 755.48 560.9999999999998 758.88L560.9999999999998 758.88L560.9999999999998 758.88L560.9999999999998 758.88C560.3199999999998 755.48 555.5599999999998 752.76 556.2399999999998 750.72C556.2399999999998 750.04 557.5999999999998 749.3599999999999 558.2799999999997 748.6800000000001V745.28C556.9199999999997 744.6 554.1999999999998 741.88 554.1999999999998 728.28V724.88H550.8V736.44L546.04 741.2H545.36L547.4 745.28V762.28L544 767.04L544 767.04L547.4 772.48V789.48L544 793.5600000000001L544 793.5600000000001L547.4 799V816L544 820.76L544 820.76L547.4 826.2V843.2L544 847.28L544 847.28L547.4 852.72V870.4L544 874.48L544 874.48L547.4 879.9200000000001V897.6L543.32 902.36H539.9200000000001C540.6 904.4 540.6 914.6 512.72 928.88V932.96C517.48 932.96 521.5600000000001 935.68 522.24 940.44C522.24 944.52 524.2800000000001 947.92 526.32 950.64C524.2800000000001 951.32 522.24 949.96 520.88 947.92C519.52 945.88 517.48 943.84 515.44 943.16C514.7600000000001 945.88 515.44 949.28 517.48 951.32C520.88 954.04 518.16 956.76 520.2 960.16C518.1600000000001 960.16 516.8000000000001 958.8 516.1200000000001 956.76C515.4400000000002 952.68 514.0800000000002 954.72 514.0800000000002 954.72C514.7600000000001 957.44 514.7600000000001 960.16 513.4000000000002 962.2C512.7200000000003 962.88 512.0400000000002 963.56 512.0400000000002 964.24C512.0400000000002 966.28 511.3600000000002 967.64 511.3600000000002 969.68C511.3600000000002 971.72 511.3600000000002 973.08 511.3600000000002 975.12C512.7200000000003 974.44 514.0800000000003 975.12 514.7600000000002 975.8C516.1200000000002 977.16 515.4400000000002 979.88 515.4400000000002 981.24S511.36 986 510 987.36V988.04L510 988.04L510 988.04V987.36C508.64 986 503.8799999999999 983.28 503.8799999999999 981.24S503.2 977.16 504.56 975.8C505.24 975.12 506.6 974.44 507.96 975.12C507.96 973.08 507.96 971.72 507.96 969.68C507.96 967.64 507.96 966.28 507.28 964.24C506.6000000000001 963.56 506.6000000000001 962.88 505.92 962.2C504.56 960.16 503.8800000000001 957.44 505.2400000000001 954.72C505.2400000000001 954.72 503.8800000000001 952.68 503.2000000000001 956.76C503.2000000000001 958.8 501.1600000000001 960.16 499.1200000000001 960.16C501.1600000000001 956.76 498.4400000000002 954.04 501.8400000000001 951.32C503.8800000000002 949.28 504.5600000000002 945.88 503.8800000000002 943.16C501.1600000000001 943.84 499.1200000000001 945.88 498.4400000000002 947.92C497.7600000000002 949.96 495.0400000000001 951.32 493.0000000000002 950.64C495.7200000000002 947.92 497.0800000000002 944.52 497.0800000000002 940.44C497.7600000000001 935.68 501.8400000000001 932.96 506.6000000000002 932.96V928.88C479.4000000000002 914.6 479.4000000000002 904.4 479.4000000000002 902.36H476L471.92 897.6V879.92L475.3200000000001 874.48L475.3200000000001 874.48L471.24 870.4V853.4L474.64 847.96L474.64 847.96L471.24 843.2V826.2L474.64 820.76L474.64 820.76L471.24 816.68V799.68L474.64 794.24L474.64 794.24L471.24 790.16V773.16L474.64 767.72L474.64 767.72L471.24 763.64V746.64L473.28 742.56H472.6L468.52 737.8V726.24H464.4400000000001V727.6C464.4400000000001 741.2 461.72 743.9200000000001 460.3600000000001 744.6V748C461.0400000000001 748 462.4000000000001 748.6800000000001 462.4000000000001 750.04C463.08 752.0799999999999 458.3200000000001 754.8 457.64 758.2L457.64 758.2L457.64 758.2L457.64 758.2C456.9600000000001 754.8 452.2000000000001 752.08 452.8800000000001 750.04C452.8800000000001 749.3599999999999 453.56 748.68 454.2400000000001 748.68V744.5999999999999C450.1600000000001 739.16 448.12 733.04 449.48 726.24V701.76L446.0800000000001 697.6799999999998V685.4399999999999L441.3200000000001 682.04V673.2L444.0400000000001 669.8L440.6400000000001 667.76V660.96C439.2800000000001 663 437.2400000000001 665.04 434.5200000000001 665.72C431.1200000000001 666.4000000000001 429.7600000000001 671.1600000000001 429.7600000000001 671.1600000000001C429.0800000000001 667.08 430.4400000000001 663.6800000000001 433.8400000000001 661.6400000000001C437.92 660.28 440.6400000000001 656.88 440.6400000000001 652.8000000000001V644.6400000000001C440.6400000000001 644.6400000000001 438.6000000000001 651.44 433.8400000000001 652.1200000000001C431.1200000000001 653.48 429.0800000000001 655.52 427.7200000000001 658.24C427.7200000000001 654.1600000000001 429.0800000000001 650.76 432.4800000000001 648.04C437.2400000000001 645.32 436.5600000000001 632.4000000000001 436.5600000000001 632.4000000000001S436.5600000000001 612.6800000000001 436.5600000000001 605.2C437.9200000000002 597.04 436.5600000000001 588.8800000000001 431.8000000000002 582.0800000000002C425.0000000000001 571.8800000000001 434.5200000000001 556.9200000000001 434.5200000000001 556.9200000000001L431.1200000000001 552.8400000000001V543.32L435.8800000000001 539.24L426.3600000000002 534.48V527.0000000000001L431.1200000000001 522.9200000000001L422.9600000000001 515.4400000000002V510L427.7200000000001 501.84L415.4800000000001 493L419.5600000000001 486.88L410.7200000000002 481.4399999999999V469.2L416.8400000000001 463.76L405.2800000000001 456.96C405.2800000000001 456.96 405.2800000000001 447.44 405.2800000000001 446.76S395.76 435.2000000000001 395.76 435.2000000000001V410.04L391 414.12L386.92 408V392.36L382.1600000000001 386.24L376.7200000000001 392.36L371.96 385.5600000000001L367.2 391.68L360.4 385.56L356.32 388.9599999999999L352.24 383.52V362.4400000000001H347.48V346.8000000000002L331.1600000000001 296.48V309.4H324.36V273.36L319.6 278.8000000000002L316.2 272L311.44 276.76L306.68 266.5600000000001V252.2800000000001L302.6 246.8400000000002L308.0399999999999 239.3600000000002V227.1200000000001L298.5199999999999 218.2800000000002L303.28 208.7600000000001L294.44 203.3200000000002V183.6000000000001L289 176.8000000000001L295.8 168.6400000000001L291.04 162.5200000000001L282.2 171.36L268.6 155.72V121.0400000000001L267.92 121.72V129.2000000000001L260.44 135.3200000000001V148.9200000000001L255.68 153.6800000000001V161.1600000000001L247.5199999999999 163.2000000000001V167.28L253.64 172.7199999999999V177.48L248.8799999999999 180.88V189.04L241.3999999999999 192.4400000000001L245.4799999999999 198.5600000000001V206.04H239.36V217.6L242.0799999999999 221V226.4400000000001H235.9599999999999V231.2000000000001L233.92 232.5600000000001V262.4800000000002L235.9599999999999 264.5200000000001V272.6800000000001H231.1999999999999V278.8000000000002H235.2799999999999V284.9200000000001H231.1999999999999V291.7200000000001H233.2399999999999V297.1600000000001H228.4799999999999L231.8799999999999 300.5600000000001V307.36L227.7999999999999 310.76V314.8400000000001L231.1999999999999 316.88V322.32L226.4399999999999 325.04H224.4L226.44 327.08V335.92L223.72 337.9599999999999L226.44 340.68V349.52L223.72 351.56L226.44 354.28V363.12L223.72 365.1600000000001L226.44 367.88V376.7199999999999L223.72 378.76L226.44 381.48V390.32L223.04 392.3599999999999L223.04 392.3599999999999L224.4 394.3999999999999C224.4 394.3999999999999 221.68 410.0399999999999 212.84 411.3999999999999V414.12H210.8V419.56C210.8 419.56 213.52 420.92 212.84 424.9999999999999C210.8 429.08 209.44 433.8399999999999 208.76 438.5999999999999H208.08C208.08 442.6799999999999 208.08 446.76 206.72 450.8399999999999C206.04 446.76 205.36 442.6799999999999 206.04 438.5999999999999H205.36C204.68 433.8399999999999 203.32 429.08 201.28 424.9999999999999C200.5999999999999 420.92 203.32 419.56 203.32 419.56V414.12H201.28V411.3999999999999C193.12 410.04 190.4 394.4 190.4 394.4L192.44 392.36L192.44 392.36L189.04 390.3200000000001V381.48L191.76 378.76L189.04 376.7200000000001V367.8800000000001L191.76 365.1600000000001L189.04 363.12V354.2800000000001L191.76 351.5600000000001L189.04 349.5200000000001V340.6800000000001L191.76 337.9600000000001L189.04 335.9200000000001V327.0800000000001L191.08 325.0400000000001H188.36L183.6 322.3200000000001V316.8800000000001L187 314.8400000000002V310.7600000000001L182.92 307.3600000000002V300.5600000000002L186.32 297.1600000000001H181.56V291.7200000000002H183.6V284.9200000000002H179.52V278.1200000000001H183.6V272.6800000000002H179.52V264.5200000000002L182.24 262.4800000000002V232.5600000000002L180.2 231.2000000000002V225.0800000000001H174.08V219.6400000000001L176.8 216.2400000000001V204.6800000000001H170.68V197.2000000000002L174.76 191.0800000000001L167.28 187.6800000000001V179.5200000000001L162.52 176.12V171.36L168.64 165.9200000000001V161.8400000000002L160.48 159.8000000000001V152.3200000000002L156.4 147.5600000000002V144.8400000000002L151.64 148.9200000000001V164.5600000000001L146.88 170V178.1600000000001L137.36 180.8800000000001V184.96L144.16 191.0800000000001V196.5200000000001L138.72 199.9200000000001V208.76L130.56 212.84L135.32 219.64V231.2000000000001H128.52V244.8000000000001L131.24 248.88V255H124.44V261.8000000000002L122.4 263.8400000000001V298.52L125.12 301.24V310.08H119.68V316.2000000000001H123.76V323H119V330.48H121.72V336.6H116.28L120.36 340.68V348.8400000000001L115.6 352.92V357.68L119 359.7199999999999V365.8400000000001L113.56 368.5600000000001H110.84L113.56 371.2800000000001V380.8000000000002L108.8 382.8400000000001L112.2 386.24V396.44L108.8 398.48L112.2 401.88V412.08L108.8 414.12L112.2 417.5200000000001V427.7200000000001L108.8 429.08L112.2 432.48V442.68L108.8 445.4L108.8 445.4L110.84 447.44C110.84 447.44 108.12 465.8000000000001 97.24 467.1600000000001V469.8800000000001H95.2V476C95.2 476 98.6 477.36 97.24 482.8000000000001C95.2 487.5600000000001 93.84 493 93.16 497.76H92.48C92.48 502.5200000000001 92.48 506.6 91.12 511.36C89.76 506.6 89.76 502.5200000000001 89.76 497.76H88.4C87.72 492.3200000000001 86.36 487.5600000000001 84.32 482.8000000000001C82.96 478.04 86.36 476 86.36 476V469.88H84.32V467.16C73.44 465.8 70.72 447.44 70.72 447.44L72.76 445.3999999999999L72.76 445.3999999999999L69.36 442.6799999999999V432.4799999999999L72.08 429.08L69.36 427.0399999999999V416.8399999999999L72.08 413.44L69.36 411.3999999999999V401.2L72.08 397.8L69.36 395.76V385.56L72.08 382.1600000000001L68.68 380.8000000000002V370.6L71.4 367.88H68.68L63.24 365.1600000000001V359.0399999999999L66.64 356.9999999999999V352.2399999999999L61.88 348.1600000000001V339.9999999999999L65.96 335.92H60.52V329.8H63.24V322.32H57.8V315.52H61.88V309.4H57.12V300.56L59.84 297.8399999999999V263.1600000000001L57.8 261.12V254.32H50.32V248.2L53.04 244.12V230.52H46.24V221.68L51 214.88L42.84 210.8000000000001V201.96L37.4 198.5600000000001V193.12L44.2 187V182.9200000000001L34.68 180.2000000000001V172.04L29.92 166.6V150.96L21.76 143.48V134.6399999999999L8.16 121.7199999999999V93.16L0 81.6V32.6400000000001H267.92V31.9600000000002H752.0799999999999V32.6400000000001H1020V81.6L1011.1599999999999 93.16z" />
    <glyph glyph-name="banknotes"
      unicode="&#xE019;"
      horiz-adv-x="1020" d="M289.53125 933.671875C259.44921875 934.26953125 229.234375 917.203125 216.484375 888.515625L92.96875 612.265625C114.21875 629.265625 140.25 637.5 170 637.5L187.265625 637.5L183.28125 654.765625L241.71875 790.234375L276.25 803.515625C280.5 803.515625 279.96875 799.53125 284.21875 799.53125C309.71875 786.78125 339.46875 799.53125 347.96875 820.78125L347.96875 828.75L382.5 836.71875L782.265625 662.734375L790.234375 637.5L850 637.5C884 637.5 913.75 624.21875 935 602.96875C935 632.71875 918.265625 663.265625 888.515625 676.015625L318.75 927.03125C309.1875 931.28125 299.55859375 933.47265625 289.53125 933.671875zM316.09375 723.828125C296.5703125 724.625 278.640625 713.203125 272.265625 697.265625C259.515625 676.015625 268.28125 650.25 289.53125 637.5L343.984375 637.5C352.484375 641.75 357 646.265625 361.25 654.765625C369.75 680.265625 361.515625 705.765625 336.015625 718.515625C329.640625 721.703125 322.6015625 723.5625 316.09375 723.828125zM512.65625 698.59375C468.4296875 699.7890625 426.859375 675.75 407.734375 637.5L612.265625 637.5C599.515625 658.75 581.984375 675.21875 556.484375 687.96875C541.609375 694.34375 527.3984375 698.1953125 512.65625 698.59375zM170 595C123.25 595 85 556.75 85 510L85 170C85 123.2499999999999 123.25 85 170 85L850 85C896.7500000000001 85 935 123.2499999999999 935 170L935 510C935 556.75 896.7500000000001 595 850 595L170 595zM272.265625 535.234375L747.734375 535.234375L778.28125 510L778.28125 502.03125C778.28125 472.28125 802.984375 450.234375 832.734375 450.234375L842.03125 450.234375L871.25 425L871.25 258.984375L867.265625 258.984375L836.71875 233.75L828.75 233.75C799 233.75 772.96875 213.03125 772.96875 183.28125L772.96875 173.984375L743.75 148.75L272.265625 148.75L241.71875 173.984375L241.71875 183.28125C241.71875 213.03125 217.015625 233.75 187.265625 233.75L177.96875 233.75L148.75 258.984375L148.75 425L177.96875 450.234375L187.265625 450.234375C217.015625 450.234375 241.71875 472.28125 241.71875 502.03125L241.71875 510L272.265625 535.234375zM513.984375 459.53125C441.7343750000001 459.53125 386.484375 408 386.484375 340C386.484375 271.9999999999999 441.7343750000001 220.46875 513.984375 220.46875C586.234375 220.46875 641.484375 276.25 641.484375 340C641.484375 403.75 586.234375 459.53125 513.984375 459.53125zM276.25 390.46875C246.5 390.46875 220.46875 369.75 220.46875 340C220.46875 310.25 246.5 289.53125 276.25 289.53125C306 289.53125 332.03125 310.25 332.03125 340C332.03125 369.75 306 390.46875 276.25 390.46875zM743.75 390.46875C714 390.46875 687.96875 369.75 687.96875 340C687.96875 310.25 714 289.53125 743.75 289.53125C773.5 289.53125 799.53125 310.25 799.53125 340C799.53125 369.75 773.5 390.46875 743.75 390.46875z" />
    <glyph glyph-name="bed"
      unicode="&#xE01A;"
      horiz-adv-x="1020" d="M102.0000000000001 816C68.2584000000001 816 40.8000000000001 788.5416 40.8000000000001 754.8L40.8000000000001 473.0250000000001C67.2792000000001 495.975 100.7352000000001 514.5594000000001 142.8000000000001 529.125L142.8000000000001 612C142.8000000000001 666.2436 235.4568000000001 673.2 316.2000000000001 673.2C396.9432000000001 673.2 489.6000000000001 666.2436 489.6000000000001 612L489.6000000000001 571.2C496.4136000000001 571.2408 503.0028000000001 571.2 510 571.2C516.9972 571.2 523.566 571.2612 530.4000000000001 571.2L530.4000000000001 612C530.4000000000001 666.2436 623.0772000000001 673.2 703.8000000000001 673.2C784.5228000000001 673.2 877.2 666.2436 877.2 612L877.2 529.7625C919.2036000000002 515.2377 952.4964000000002 496.2810000000001 979.2000000000002 473.0250000000001L979.2000000000002 754.8C979.2000000000002 788.5416 951.7416 816 917.9999999999998 816L102.0000000000001 816zM510 530.4000000000001C120.5028000000001 530.4000000000001 -0.2855999999999 458.3676 1e-13 265.2000000000001L1019.9999999999998 265.2000000000001C1020.2856000000002 459.6324 899.4972000000001 530.4000000000001 510 530.4000000000001zM1e-13 224.4000000000001L1e-13 1e-13L142.8000000000001 1e-13L142.8000000000001 81.6C142.8000000000001 110.9556000000001 154.2444000000001 122.4000000000001 183.6000000000001 122.4000000000001L836.4000000000001 122.4000000000001C865.7556000000001 122.4000000000001 877.2 110.9556000000001 877.2 81.6L877.2 1e-13L1019.9999999999998 1e-13L1019.9999999999998 224.4000000000001L1e-13 224.4000000000001z" />
    <glyph glyph-name="bellservice"
      unicode="&#xE01B;"
      horiz-adv-x="1020" d="M474.3079687499999 730.575C474.3079687499999 709.9782306109978 491.0049493609978 693.28125 511.60171875 693.28125C532.1984881390022 693.28125 548.89546875 709.9782306109978 548.89546875 730.575C548.89546875 751.1717693890022 532.1984881390022 767.86875 511.60171875 767.86875C491.0049493609978 767.86875 474.3079687499999 751.1717693890022 474.3079687499999 730.575zM512.008125 636.129375C647.6442187499999 636.0735937500001 748.71984375 601.0509375 812.39015625 532.00171875C861.8282812499999 478.38 889.51171875 404.03953125 894.78703125 310.78125H125.21296875C130.50421875 403.9518750000001 158.2753125 478.29234375 207.89671875 531.9778125C271.734375 601.0349999999999 372.91359375 636.07359375 508.6134375 636.129375C509.17921875 636.1134374999999 509.75296875 636.0975 510.31078125 636.0975C510.8446875 636.0975 511.3865625 636.10546875 512.008125 636.129375M511.71328125 668.004375C511.243125 668.004375 510.7809375 667.9725000000001 510.31078125 667.9725000000001S509.3784375 668.004375 508.90828125 668.004375C194.9953125 668.004375 96.485625 488.92265625 92.533125 290.0784375000001C92.41359375 283.910625 97.4259375 278.90625 103.59375 278.90625H916.40625C922.5740625 278.90625 927.58640625 283.910625 927.466875 290.0784375000001C923.514375 488.92265625 825.61828125 668.004375 511.71328125 668.004375L511.71328125 668.004375zM973.15171875 215.15625C981.271875 215.15625 988.125 209.6817187500001 988.125 203.203125S981.271875 191.25 973.15171875 191.25H46.84828125C38.728125 191.25 31.875 196.7245312499999 31.875 203.203125S38.728125 215.15625 46.84828125 215.15625H973.15171875M973.15171875 247.03125H46.84828125C20.98171875 247.03125 0 227.4042187500001 0 203.203125S20.98171875 159.375 46.84828125 159.375H973.1517187500002C999.01828125 159.375 1020 179.00203125 1020 203.203125S999.01828125 247.03125 973.15171875 247.03125L973.15171875 247.03125zM437.0381250000001 751.50890625C436.305 751.50890625 435.5718750000001 751.60453125 434.8467187500001 751.81171875L380.32453125 767.326875C376.0931250000001 768.53015625 373.63078125 772.936875 374.84203125 777.16828125C376.0453125 781.40765625 380.45203125 783.87 384.6834375000001 782.6507812499999L439.2215625 767.135625C443.4450000000001 765.93234375 445.899375 761.525625 444.7040625 757.29421875C443.7 753.78796875 440.50453125 751.50890625 437.0381250000001 751.50890625zM482.54765625 792.73921875C479.72671875 792.73921875 477.009375 794.23734375 475.5590625 796.875L448.29 846.54421875C446.1703125 850.40109375 447.58875 855.2540625 451.445625 857.36578125C455.2865625 859.4775 460.13953125 858.06703125 462.25921875 854.21015625L489.51234375 804.5409374999999C491.64 800.6840625 490.22953125 795.83109375 486.3646875 793.719375C485.16140625 793.05796875 483.83859375 792.73921875 482.54765625 792.73921875zM543.57234375 789.93421875C542.82328125 789.93421875 542.0742187499999 790.0378125 541.3331249999999 790.25296875C537.11765625 791.4801562499999 534.6871874999998 795.91078125 535.9143749999998 800.13421875L551.8837499999998 854.8875C553.1109374999999 859.1109375 557.5495312499999 861.54140625 561.7649999999999 860.30625C565.9804687499998 859.0790625 568.4109374999998 854.6484375 567.1837499999999 850.425L551.2143749999999 795.6717187500001C550.2023437500001 792.1893749999999 547.0228125 789.93421875 543.57234375 789.93421875zM584.364375 744.73546875C581.5593749999999 744.73546875 578.8579687499999 746.2096875 577.39171875 748.8314062500001C575.248125 752.67234375 576.6346874999999 757.5332812500001 580.48359375 759.66890625L630.33609375 787.4160937500001C634.17703125 789.54375 639.0459375 788.1810937500001 641.17359375 784.32421875C643.3171875 780.48328125 641.930625 775.62234375 638.0817187499999 773.48671875L588.22921875 745.73953125C587.01 745.0621874999999 585.67125 744.73546875 584.364375 744.73546875z" />
    <glyph glyph-name="both-direction"
      unicode="&#xE01C;"
      horiz-adv-x="1020" d="M946.6875 312.375L902.0625 357L765 219.9375V892.5H701.25V219.9375L564.1875 357L519.5625 312.375L710.8125 121.125L733.125 98.8125L755.4375 121.125L946.6875 312.375zM500.4375 707.625L309.1875 898.875L286.875 921.1875L264.5625 898.875L73.3125 707.625L117.9375 663L255 800.0625V127.5H318.75V800.0625L455.8125 663L500.4375 707.625z" />
    <glyph glyph-name="breakfast"
      unicode="&#xE01D;"
      horiz-adv-x="1020" d="M848.895 472.7700000000001C850.9350000000001 481.95 848.385 491.13 842.7750000000001 498.2700000000001C837.1650000000001 505.4100000000001 827.985 509.4900000000001 818.8050000000001 509.4900000000001L785.655 509.4900000000001C788.715 528.3600000000001 790.755 547.23 790.755 566.6100000000001C790.755 725.73 674.985 1020 510.2550000000001 1020S229.2450000000001 725.73 229.2450000000001 566.61C229.2450000000001 547.23 231.2850000000001 528.36 234.3450000000001 509.49L201.195 509.49C192.0150000000001 509.49 183.345 505.41 177.225 498.27C171.6150000000001 491.13 169.065 481.4399999999999 171.105 472.77C206.805 307.53 331.245 189.21 479.145 174.93L479.145 61.71H338.8950000000001C322.0650000000001 61.71 308.295 47.9400000000001 308.295 31.11C308.295 14.28 322.0650000000001 0.51 338.8950000000001 0.51H681.1049999999999C697.935 0.51 711.7049999999999 14.28 711.7049999999999 31.11C711.7049999999999 47.9400000000001 697.935 61.71 681.1049999999999 61.71H540.855L540.855 174.93C688.755 188.7000000000001 813.1949999999999 307.5300000000001 848.895 472.7700000000001zM290.4450000000001 566.61C290.4450000000001 714 397.0350000000001 958.8 510.2550000000001 958.8S730.0649999999999 714 730.0649999999999 566.61C730.0649999999999 547.23 727.515 528.36 723.9449999999999 509.49L296.565 509.49C292.995 528.36 290.4450000000001 547.23 290.4450000000001 566.61zM240.975 448.2900000000001L779.025 448.8000000000002C737.2049999999999 320.7900000000001 630.615 234.0900000000001 509.745 234.0900000000001C389.385 234.0900000000001 282.795 320.2800000000001 240.975 448.2900000000001z" />
    <glyph glyph-name="calendar"
      unicode="&#xE01E;"
      horiz-adv-x="1020" d="M255 935L255 850L212.5 850C165.75 850 127.5 811.75 127.5 765L127.5 170C127.5 123.2499999999999 165.75 85 212.5 85L807.5 85C854.2500000000001 85 892.5 123.2499999999999 892.5 170L892.5 765C892.5 811.75 854.2500000000001 850 807.5 850L765 850L765 935L680 935L680 850L340 850L340 935L255 935zM212.5 637.5L807.5 637.5L807.5 170L212.5 170L212.5 637.5zM510 467.5L510 255L722.5 255L722.5 467.5L510 467.5z" />
    <glyph glyph-name="calendar_go"
      unicode="&#xE01F;"
      horiz-adv-x="1020" d="M619.4799999999999 535.8399999999999L779.28 407.3200000000001C786.7599999999999 401.2000000000001 790.8399999999999 392.36 790.8399999999999 382.8400000000002C790.8399999999999 373.3200000000001 786.76 364.4800000000002 778.6 358.3600000000002L618.8 232.5600000000002C605.1999999999999 221.6800000000002 585.4799999999999 224.4000000000001 575.28 238.0000000000001C564.4 251.6000000000002 567.1199999999999 271.3200000000002 580.7199999999999 281.5200000000002L669.7999999999998 351.5600000000002H257.04C240.04 351.5600000000002 225.76 365.8400000000002 225.76 382.8400000000002S240.04 414.12 257.04 414.12H671.1599999999999L580.72 486.88C567.8 498.4399999999999 566.44 518.1599999999999 578 531.0799999999999C588.1999999999999 543.32 606.5600000000001 545.36 619.4799999999999 535.8399999999999L619.4799999999999 535.8399999999999zM0 846.6V112.2000000000001C0 67.3200000000001 36.72 30.6 81.6 30.6H938.4C983.28 30.6 1020 67.3200000000001 1020 112.2000000000001V846.6C1020 891.48 983.28 928.2 938.4 928.2H775.1999999999999V969C775.1999999999999 980.56 766.36 989.4 754.8 989.4S734.4 980.56 734.4 969V928.2H285.6V969C285.6 980.56 276.76 989.4 265.2 989.4S244.8 980.56 244.8 969V928.2H81.6C36.72 928.2 0 891.48 0 846.6zM40.8 683.4000000000001H979.2V112.2000000000001C979.2 89.76 960.84 71.4 938.4 71.4H81.6C59.16 71.4 40.8 89.76 40.8 112.2000000000001V683.4000000000001zM40.8 846.6C40.8 869.04 59.16 887.4 81.6 887.4H244.8V841.16C225.08 829.6 218.28 805.12 229.84 785.4C241.4 765.6800000000001 265.88 758.88 285.6 770.44C305.32 782 312.12 806.48 300.56 826.2C297.1600000000001 832.3199999999999 291.7200000000001 837.76 285.6 841.16V887.4H734.4V841.16C714.68 829.6 707.88 805.12 719.4399999999999 785.4S755.4799999999999 758.88 775.1999999999999 770.44C794.9200000000001 782 801.72 806.48 790.16 826.2C786.76 832.3199999999999 781.32 837.76 775.1999999999999 841.16V887.4H938.4C960.84 887.4 979.2 869.04 979.2 846.6V724.2H40.8V846.6z" />
    <glyph glyph-name="calendar_return"
      unicode="&#xE020;"
      horiz-adv-x="1020" d="M400.52 535.8399999999999L240.72 407.3200000000001C233.24 401.2000000000001 229.16 392.36 229.16 382.8400000000002C229.16 373.3200000000001 233.24 364.4800000000002 241.4 358.3600000000002L401.2 232.5600000000002C414.8 221.6800000000002 434.5199999999999 224.4000000000001 444.7199999999999 238.0000000000001C455.5999999999999 251.6000000000002 452.8799999999999 271.3200000000002 439.28 281.5200000000002L439.28 281.5200000000002L350.2 351.5600000000001H762.96C779.96 351.5600000000001 794.24 365.8400000000001 794.24 382.8400000000001S779.96 414.12 762.96 414.12H348.84L439.96 486.88C452.8800000000001 498.4399999999999 454.24 518.1599999999999 442.6800000000001 531.0799999999999C431.8 543.32 413.44 545.36 400.52 535.8399999999999L400.52 535.8399999999999zM938.4 928.2H775.1999999999999V969C775.1999999999999 980.56 766.36 989.4 754.8 989.4S734.4 980.56 734.4 969V928.2H285.6V969C285.6 980.56 276.76 989.4 265.2 989.4S244.8 980.56 244.8 969V928.2H81.6C36.72 928.2 0 891.48 0 846.6V112.2000000000001C0 67.3200000000001 36.72 30.6 81.6 30.6H938.4C983.28 30.6 1020 67.3200000000001 1020 112.2000000000001V846.6C1020 891.48 983.28 928.2 938.4 928.2zM979.2 112.2000000000001C979.2 89.76 960.84 71.4 938.4 71.4H81.6C59.16 71.4 40.8 89.76 40.8 112.2000000000001V683.4000000000001H979.2V112.2000000000001zM979.2 724.2H40.8V846.6C40.8 869.04 59.16 887.4 81.6 887.4H244.8V841.16C225.08 829.6 218.28 805.12 229.84 785.4C241.4 765.6800000000001 265.88 758.88 285.6 770.44C305.32 782 312.12 806.48 300.56 826.2C297.1600000000001 832.3199999999999 291.7200000000001 837.76 285.6 841.16V887.4H734.4V841.16C714.68 829.6 707.88 805.12 719.4399999999999 785.4S755.4799999999999 758.88 775.1999999999999 770.44C794.9200000000001 782 801.72 806.48 790.16 826.2C786.76 832.3199999999999 781.32 837.76 775.1999999999999 841.16V887.4H938.4C960.84 887.4 979.2 869.04 979.2 846.6V724.2z" />
    <glyph glyph-name="cancel"
      unicode="&#xE021;"
      horiz-adv-x="1020" d="M871.0799999999999 870.4C671.8399999999999 1069.64 348.8400000000001 1069.64 149.6 871.08C-49.64 671.8399999999999 -49.64 348.8400000000001 148.92 149.6C348.1600000000001 -49.6400000000001 671.1599999999999 -49.6400000000001 870.4 148.9200000000001C870.4 148.9200000000001 870.4 148.9200000000001 871.0799999999999 149.6C1069.64 348.8400000000001 1069.64 671.1600000000001 871.0799999999999 870.4zM714.68 306L714.68 306C690.88 282.2000000000001 653.4799999999999 282.2000000000001 630.3599999999999 306L510.6799999999999 425.68L391 306.68C367.88 283.56 329.8000000000001 283.56 306.6800000000001 306.68S283.5600000000001 367.88 306.6800000000001 391L425.6800000000001 510L306.6800000000001 629.6800000000001C283.5600000000001 652.8 283.5600000000001 690.88 306.6800000000001 714S367.88 737.12 391 714L510.6799999999999 594.3199999999999L629.68 714C652.8 737.12 690.88 737.12 714 714S737.12 652.8 714 629.6800000000001L594.32 510L714 390.3200000000001C737.8 367.2000000000001 737.8 329.8000000000002 714.68 306z" />
    <glyph glyph-name="card"
      unicode="&#xE022;"
      horiz-adv-x="1020" d="M416.2875000000001 836.4C386.7558276000001 836.4 362.6906412000001 821.766468 346.8000000000001 803.25C342.6949080000001 798.4665876 339.1087308000001 793.1140968 335.9625000000001 787.95C326.1701532000001 791.7224292 316.3945752000001 793.8771588 307.2750000000001 794.325C292.2134760000001 795.064704 278.7116136000001 791.7680436 267.1125000000001 785.4C243.9142728000001 772.6639127999999 227.5597152000001 753.294684 210.3750000000001 738.8625C192.7754508000001 724.0911252000001 140.0954414400001 685.4248224 93.0750000000001 651.5250000000001C46.0545585600001 617.6251776 4.4625000000001 587.7750000000001 4.4625000000001 587.7750000000001A1.0001 1.0001 0 1 1 27.4125000000001 554.625C27.4125000000001 554.625 70.1030414400001 584.3479224 117.3000000000001 618.375C164.4969585600001 652.4020776 216.0303492000001 689.8991748000001 237.1500000000001 707.625C257.6644848000001 724.8536160000001 273.4450272000001 742.3267872 286.8750000000001 749.7C298.0471212000001 755.8336272 306.8801784000001 757.8145488 323.2125000000001 749.7C322.9113756000001 746.8927152 321.9375000000001 744.2153172000001 321.9375000000001 741.4125L321.9375000000001 498.5250000000001L293.8875000000001 485.7750000000001A1.0001 1.0001 0 1 1 310.4625000000001 448.8000000000002L499.1625 535.5L499.8000000000001 535.5C526.6344456000002 549.8263692 554.7867924000001 562.9834920000001 576.3000000000001 567.375C597.8132076 571.766508 608.5653744000001 569.9047836 617.7375000000001 557.8125C628.5083328000002 543.592578 630.9564552000002 528.0094260000001 626.0250000000001 510.6375C621.0935448 493.265574 607.9527828000001 474.4235832000001 585.2250000000001 458.3625000000001C537.6434484000001 424.7191668000001 464.1 399.7125000000001 464.1 399.7125000000001L460.2750000000001 398.4375L457.0875000000001 395.8875000000001C419.2020276000001 363.6702696000001 397.3331664000001 333.0720444000001 369.7500000000001 312.375C342.1668336000001 291.6779556 308.0491596000001 277.9500000000001 237.7875000000001 277.9500000000001L237.1500000000001 277.9500000000001L236.5125000000001 277.9500000000001L14.6625000000001 265.2000000000001A1.0019512 1.0019512 0 0 1 17.2125000000001 224.4000000000001L237.7875000000001 237.1500000000001C238.2938280000001 237.1500000000001 238.5588240000001 237.14847 239.0625000000001 237.1500000000001C291.1618968000001 237.3071208000001 329.0024076000001 245.9432364000001 358.9125000000001 259.4625000000001C364.0555644000001 244.1696196000001 374.7333732000001 231.0696372000001 391.4250000000001 225.6750000000001C414.8483412000001 218.1089868 437.9609904000001 220.3137168000001 456.4500000000001 228.225C464.6915592000001 231.7514868 472.1245848000001 236.4843072000001 478.7625000000001 241.6125000000001C485.2429272000001 226.7965512000001 496.7673564000001 212.9305284 514.4625000000001 206.5500000000001C533.0512248000001 199.849416 551.5296264000001 198.3323496000002 568.0125 202.725C584.4953736000001 207.1176504 598.0031520000001 216.4395936 610.7250000000001 228.225C612.909432 230.2413972000001 614.3475096000001 231.6981000000001 615.825 233.3250000000001C620.0888652000001 230.3426832000001 625.0608960000001 228.3755724000001 630.4875000000001 226.9500000000001C656.9672304000001 220.0040652 687.8599500000001 227.5601640000001 711.45 251.1750000000001C732.2045928 271.9058472000001 744.6319668000001 303.7278072000001 749.0625000000001 346.8000000000002L926.9250000000002 346.8000000000002C975.8973012 346.8000000000002 1015.5375 386.9345928 1015.5375 436.0500000000002L1015.5375 743.325C1015.5375 794.4652704 971.4262128000001 836.4 921.1875000000002 836.4L416.2875000000001 836.4zM416.2875000000001 795.6L921.1875000000002 795.6C946.5919872000002 795.6 974.7375000000002 768.3991296 974.7375000000002 743.325L974.7375000000002 734.4000000000001L362.7375000000001 734.4000000000001L362.7375000000001 741.4125C362.7375000000001 749.8651584 368.2496412000001 765.0697680000001 378.0375000000001 776.475C387.8253588000001 787.880232 400.1843724000001 795.6 416.2875000000001 795.6zM362.7375000000001 652.8L974.7375000000002 652.8L974.7375000000002 436.0500000000002C974.7375000000002 408.9102072000001 953.5550988000002 387.6 926.9250000000002 387.6L541.8750000000001 387.6C563.2915524000001 397.3873896 586.9750548000001 409.1344644000002 608.8125000000001 424.5750000000001C637.7579172000001 445.0299168 657.5529552 470.991426 665.5500000000001 499.1625C673.5470448000001 527.333574 668.5287672000001 557.905422 650.2500000000001 582.0375C630.3317256 608.2972164 597.3666924000001 612.892092 568.0125 606.9000000000001C539.1014364000001 600.9983616 509.5388784 587.1633672 481.9500000000001 572.475C481.5271080000001 572.249784 481.097076 572.0629200000001 480.6750000000001 571.8375000000001L362.7375000000001 517.6500000000001L362.7375000000001 652.8zM464.7375000000001 346.8000000000002L478.7625000000001 346.8000000000002C477.5283 332.4568416 475.5247344000001 310.8740292 473.0250000000001 297.0750000000001C472.7190204000001 295.3954884 472.6195296 293.6897832000001 472.3875000000001 291.975A1.0083877 1.0083877 0 0 1 469.2000000000001 289.4250000000002C460.4499912000001 279.0238764000001 450.3131904000001 270.3039168 439.8750000000001 265.8375000000001C429.4368096 261.3710832000001 418.9608588000001 259.7865132000001 404.1750000000001 264.5625C400.4834568000001 265.7555124000001 396.3592092000001 271.6285092000001 395.8875000000001 281.1375000000001C422.2128228000001 301.2219528000001 441.5674656000001 323.9696868000001 464.7375000000001 346.8000000000002zM520.2 346.8000000000002L596.7 346.8000000000002C595.2271200000001 337.3431516000001 594.0002232 326.5165656000001 592.8750000000001 315.5625C591.5056704000001 302.2763268000001 590.2963992000001 286.3549836000001 593.5125 270.3000000000002C592.3592268000001 268.7825052000001 591.9311940000001 268.4815644 590.325 266.475C586.9494936000001 262.2580752 581.0338200000001 256.0840968000001 583.3125000000001 258.1875C573.3087480000002 248.9201064 564.8049264000001 243.6458496 557.1750000000001 241.6125000000001C549.5450736 239.5791504 541.4779752000001 240.117384 528.4875000000001 244.8000000000001C521.584548 247.2890652000001 517.9840296000001 251.7278604000001 515.1000000000001 260.1C512.2159704000002 268.4721396 511.4166780000001 280.3422672000002 513.1875000000001 290.0625C516.6755124000001 309.3169992000001 519.1639452000001 333.9894324000001 520.2 346.8000000000002zM638.1375 346.8000000000002L707.6250000000001 346.8000000000002C703.4335344000001 312.6901800000001 693.9563064 291.0435156 682.7625 279.8625000000002C667.5925500000001 264.6765768 654.8037696000001 262.7721348 640.6875000000001 266.475C635.9637168 267.7159320000001 635.5634688000001 268.8666552000001 633.6750000000001 277.3125C631.7865720000001 285.7583448000001 631.7865720000001 298.9635912000001 633.0375000000001 311.1C634.3768212000001 324.1382520000001 636.3678204 336.8599368000002 638.1375 346.8000000000002z" />
    <glyph glyph-name="center-direction"
      unicode="&#xE023;"
      horiz-adv-x="1020" d="M508.1610576923077 1021.2259615384615A1.0001 1.0001 0 0 1 503.2572115384616 1020A1.0001 1.0001 0 0 1 472.6081730769231 980.7692307692308L472.6081730769231 939.0865384615385C266.0252584615385 920.3664039230767 101.476689 755.8838755384616 82.7524038461539 549.2307692307692L41.0697115384615 549.2307692307692A1.0001 1.0001 0 0 1 37.3918269230769 549.2307692307692A1.001098 1.001098 0 0 1 41.0697115384615 470.7692307692307L82.7524038461539 470.7692307692307C101.476689 264.1161323076923 266.0252545384617 99.6336 472.6081730769231 80.9134615384614L472.6081730769231 39.2307692307692A1.0001 1.0001 0 1 1 551.0697115384615 39.2307692307692L551.0697115384615 80.9134615384614C757.7203384615385 99.637523076923 922.2014192307691 264.1186038461538 940.9254807692308 470.7692307692307L982.608173076923 470.7692307692307A1.0001 1.0001 0 1 1 982.608173076923 549.2307692307692L940.9254807692308 549.2307692307692C922.2014192307691 755.881404 757.7203384615385 920.3624769230768 551.0697115384615 939.0865384615385L551.0697115384615 980.7692307692308A1.0001 1.0001 0 0 1 508.1610576923077 1021.2259615384615zM551.0697115384615 861.8509615384615C715.5631107692309 844.064331 845.9032615384615 713.7241645384615 863.6899038461538 549.2307692307692L825.6850961538462 549.2307692307692A1.0001 1.0001 0 0 1 822.0072115384615 549.2307692307692A1.001098 1.001098 0 0 1 818.3293269230769 549.2307692307692A1.0043849 1.0043849 0 0 1 825.6850961538462 470.7692307692307L863.6899038461538 470.7692307692307C845.9032615384615 306.2758315384614 715.5631107692309 175.9356807692308 551.0697115384615 158.1490384615385L551.0697115384615 196.1538461538461A1.0001 1.0001 0 0 1 508.1610576923077 236.6105769230769A1.0001 1.0001 0 0 1 503.2572115384616 235.3846153846154A1.0001 1.0001 0 0 1 472.6081730769231 196.1538461538461L472.6081730769231 159.3749999999999C308.1705325384616 177.2315515384614 177.7623006923077 306.3896792307692 159.9879807692308 470.7692307692307L197.9927884615385 470.7692307692307A1.0001 1.0001 0 1 1 197.9927884615385 549.2307692307692L159.9879807692308 549.2307692307692C177.7623006923077 713.6103403846154 308.1705325384616 842.7684563076923 472.6081730769231 860.625L472.6081730769231 823.8461538461538A1.0001 1.0001 0 1 1 551.0697115384615 823.8461538461538L551.0697115384615 861.8509615384615zM511.8389423076924 666.9230769230769C425.1727200000001 666.9230769230769 354.9158653846154 596.6662223076924 354.9158653846154 509.9999999999999C354.9158653846154 423.3337776923077 425.1727200000001 353.076923076923 511.8389423076924 353.076923076923C598.5051646153846 353.076923076923 668.7620192307693 423.3337776923077 668.7620192307693 509.9999999999999C668.7620192307693 596.6662223076924 598.5051646153846 666.9230769230769 511.8389423076924 666.9230769230769z" />
    <glyph glyph-name="check"
      unicode="&#xE024;"
      horiz-adv-x="1020" d="M255 935C208.25 935 170 896.75 170 850L170 765L595 765L595 807.5C595 833 612 850 637.5 850C661.0681625 850 680 831.06818375 680 807.5L680 552.5L340 552.5L340 722.5L255 722.5L255 637.5L170 637.5C123.25 637.5 85 599.25 85 552.5L85 85L935 85L935 552.5C935 599.25 896.7500000000001 637.5 850 637.5L765 637.5L765 807.5C765 877.43181625 707.4318374999999 935 637.5 935L255 935zM170 425L850 425L850 170L170 170L170 425zM297.5 340L297.5 255L382.5 255L382.5 340L297.5 340zM467.5 340L467.5 255L552.5 255L552.5 340L467.5 340zM637.5 340L637.5 255L722.5 255L722.5 340L637.5 340z" />
    <glyph glyph-name="check_empty"
      unicode="&#xE025;"
      horiz-adv-x="1020" d="M927.52 139.4C927.52 113.56 906.44 93.16 881.28 93.16H881.28H139.4C113.56 93.16 93.16 114.2399999999999 93.16 139.4L93.16 139.4V881.28C93.16 907.12 114.24 927.52 139.4 927.52H881.28C907.12 927.52 927.52 906.44 927.52 881.28C927.52 881.28 927.52 881.28 927.52 881.28L927.52 139.4zM881.28 1020H139.4C62.56 1020 0 957.44 0 881.28V139.4C0 62.56 62.56 0 139.4 0H881.28C958.12 0 1020 62.56 1020 138.72V881.28C1020 957.44 957.44 1020 881.28 1020z" />
    <glyph glyph-name="check_in"
      unicode="&#xE026;"
      horiz-adv-x="1020" d="M674.9 68.68H126.82C114.58 68.68 105.06 78.88 105.06 90.4399999999999V928.88C105.06 941.12 115.26 950.64 126.82 950.64H674.8999999999999C687.1399999999999 950.64 696.6599999999999 940.44 696.6599999999999 928.88V705.84C696.6599999999999 693.6000000000001 686.4599999999999 684.08 674.8999999999999 684.08S653.1399999999999 694.28 653.1399999999999 705.84V907.12H149.26V113.56H653.14V322.9999999999999C653.14 335.2399999999999 663.3399999999999 344.76 674.9 344.76S696.66 334.56 696.66 322.9999999999999V91.8000000000001C696.66 78.88 687.14 68.68 674.9 68.68C674.9 68.68 674.9 68.68 674.9 68.68zM490.62 519.52C491.98 522.24 494.0199999999999 524.96 496.0599999999999 527.6800000000001L599.42 631.0400000000001C608.9399999999999 639.8800000000001 623.8999999999999 639.8800000000001 633.42 631.0400000000001C642.9399999999999 621.5200000000001 642.9399999999999 605.8800000000001 633.42 595.6800000000001L571.54 531.76H891.14C904.06 531.76 914.94 520.8800000000001 914.94 507.96S904.06 484.1600000000001 891.14 484.1600000000001H571.54L633.42 422.9600000000001C642.9399999999999 414.12 642.9399999999999 399.1600000000001 633.42 389.64C628.66 384.88 622.54 382.8400000000001 616.42 382.8400000000001C610.2999999999998 382.8400000000001 604.18 385.5600000000001 599.42 390.32L495.38 493C493.34 495.04 489.2599999999999 497.76 489.2599999999999 501.1600000000001L489.2599999999999 501.1600000000001C483.14 506.6 487.9 513.4000000000001 490.62 519.52zM258.74 471.9200000000001C245.82 471.9200000000001 234.94 482.8000000000001 234.94 495.72V523.6C233.58 536.52 243.1 548.76 256.02 550.1200000000001C268.94 551.48 281.18 541.96 282.54 529.0400000000001C282.54 527.6800000000001 282.54 525.6400000000001 282.54 524.2800000000001V496.4000000000001C282.54 482.8000000000001 271.66 471.9200000000001 258.74 471.9200000000001z" />
    <glyph glyph-name="check_in_2"
      unicode="&#xE027;"
      horiz-adv-x="1020" d="M891.8200000000002 68.68H343.7400000000001C331.5000000000001 68.68 321.9800000000002 78.88 321.9800000000002 90.4399999999999V321.6399999999999C321.9800000000002 333.8799999999999 332.1800000000001 343.4 343.7400000000001 343.4S365.5000000000001 333.2 365.5000000000001 321.6399999999999V112.1999999999998H869.38V907.12H366.1800000000001V705.8399999999999C366.1800000000001 693.6 355.9800000000002 684.0799999999999 344.4200000000002 684.0799999999999S322.6600000000002 694.28 322.6600000000002 705.8399999999999V928.88C322.6600000000002 941.12 332.8600000000002 950.64 344.4200000000002 950.64H892.5000000000001C904.7400000000002 950.64 914.2599999999998 940.44 914.2599999999998 928.88V91.1200000000001C913.5800000000002 78.88 904.06 68.68 891.8200000000002 68.68zM129.5400000000001 531.76H449.1400000000001L387.2600000000001 595C377.7400000000001 604.52 377.7400000000001 619.48 386.5800000000001 629.6800000000001S411.0600000000001 639.2 421.2600000000001 630.36L523.94 527.6800000000001C526.6600000000001 525.6400000000001 528.0200000000001 522.9200000000001 528.7 520.2L528.7 520.2C528.7 514.0800000000002 531.4200000000002 507.9600000000002 529.3800000000001 501.8400000000001C528.0200000000001 499.12 526.66 496.4000000000001 524.62 493.6800000000001L421.2600000000001 389.64C411.7400000000001 380.12 396.7800000000001 380.12 387.2600000000001 389.64C387.2600000000001 389.64 387.2600000000001 389.64 387.2600000000001 389.64C378.4200000000002 398.48 377.7400000000001 412.76 386.5800000000001 422.28C386.5800000000001 422.28 386.5800000000001 422.28 387.2600000000001 422.9599999999999L449.1400000000001 484.16H129.5400000000001C116.6200000000001 484.16 105.7400000000001 495.0399999999998 105.7400000000001 507.9599999999999S116.6200000000001 531.76 129.5400000000001 531.76L129.5400000000001 531.76zM759.9000000000001 471.9200000000001C746.98 471.9200000000001 736.1000000000001 482.8000000000001 736.1000000000001 495.72V523.6C734.7400000000001 536.52 744.2600000000001 548.76 757.1800000000001 550.1200000000001C770.1000000000001 551.48 782.34 541.96 783.7 529.0400000000001C783.7 527.6800000000001 783.7 525.6400000000001 783.7 524.2800000000001V496.4000000000001C783.7 482.8000000000001 772.8200000000002 471.9200000000001 759.9000000000001 471.9200000000001z" />
    <glyph glyph-name="check_out"
      unicode="&#xE028;"
      horiz-adv-x="1020" d="M676.6 68.68H128.52C116.28 68.68 106.76 78.88 106.76 90.4399999999999V928.88C106.76 941.12 116.96 950.64 128.52 950.64H676.5999999999999C688.8399999999999 950.64 698.3599999999999 940.44 698.3599999999999 928.88V705.84C698.3599999999999 693.6000000000001 688.16 684.08 676.5999999999999 684.08S654.8399999999999 694.28 654.8399999999999 705.84V907.12H150.96V113.56H654.84V322.9999999999999C654.84 335.2399999999999 665.04 344.76 676.6 344.76S698.36 334.56 698.36 322.9999999999999V91.8000000000001C698.36 78.88 688.84 68.68 676.6 68.68C676.6 68.68 676.6 68.68 676.6 68.68zM913.24 519.52C911.88 522.24 910.52 524.96 908.4800000000002 527.6800000000001L805.8000000000002 631.0400000000001C796.2800000000001 640.5600000000001 781.3200000000002 640.5600000000001 771.8000000000002 631.0400000000001C762.2800000000001 621.5200000000001 762.2800000000001 605.8800000000001 771.8000000000002 595.6800000000001L833.6800000000001 532.44H514.0800000000002C501.1600000000001 532.44 490.2800000000001 521.5600000000002 490.2800000000001 508.6400000000001S501.1600000000001 484.8400000000001 514.0800000000002 484.8400000000001H833.6800000000001L771.8000000000002 423.6400000000001C762.2800000000001 414.8000000000002 762.2800000000001 399.8400000000002 771.8000000000002 390.3200000000001C776.5600000000002 385.5600000000001 782.6800000000001 383.5200000000001 788.8000000000002 383.5200000000001C794.9200000000002 383.5200000000001 801.0400000000001 386.2400000000001 805.8000000000002 391L907.8 494.36C910.5200000000002 496.4 911.88 499.12 911.88 502.5200000000001L911.88 502.5200000000001C919.36 506.6 915.96 513.4000000000001 913.24 519.52zM257.72 550.1200000000001C244.8 548.76 235.2800000000001 537.2 236.64 523.6V495.72C236.64 482.8000000000001 247.52 471.9200000000001 260.44 471.9200000000001C273.36 471.9200000000001 284.24 482.8000000000001 284.24 495.72V523.6C284.24 524.96 284.24 527 284.24 528.36C282.88 541.96 270.64 551.48 257.72 550.1200000000001z" />
    <glyph glyph-name="check_out_2"
      unicode="&#xE029;"
      horiz-adv-x="1020" d="M891.1400000000002 68.68H343.0600000000002C330.8200000000002 68.68 321.3000000000002 78.88 321.3000000000002 90.4399999999999V321.6399999999999C321.3000000000002 333.8799999999999 331.5000000000001 343.4 343.0600000000002 343.4S364.8200000000002 333.2 364.8200000000002 321.6399999999999V112.1999999999998H868.7V907.12H365.5000000000001V705.8399999999999C365.5000000000001 693.6 355.3000000000002 684.0799999999999 343.7400000000001 684.0799999999999S321.9800000000002 694.28 321.9800000000002 705.8399999999999V928.88C321.9800000000002 941.12 332.1800000000002 950.64 343.7400000000001 950.64H891.8200000000002C904.0600000000002 950.64 913.58 940.44 913.58 928.88V91.1200000000001C912.9000000000002 78.88 903.3800000000002 68.68 891.1400000000002 68.68zM505.5800000000002 531.76H185.9800000000001L247.8600000000002 595C257.3800000000001 604.52 257.3800000000001 619.48 248.5400000000002 629.6800000000001S224.0600000000002 639.2 213.8600000000001 630.36L111.1800000000001 527C109.1400000000001 524.96 106.4200000000001 522.24 106.4200000000001 519.52L106.4200000000001 519.52C106.4200000000001 513.4000000000001 103.7000000000001 507.2800000000001 106.4200000000001 501.1600000000001C107.7800000000001 498.4399999999999 109.1400000000001 495.72 111.8600000000001 493L214.5400000000001 389.64C224.0600000000002 380.12 239.0200000000001 380.12 248.5400000000002 389.64C248.5400000000002 389.64 248.5400000000002 389.64 248.5400000000002 389.64C257.3800000000001 398.48 258.0600000000002 412.76 249.2200000000001 422.28C249.2200000000001 422.28 249.2200000000001 422.28 248.5400000000002 422.9599999999999L186.6600000000002 484.16H506.2600000000001C519.1800000000002 484.16 530.0600000000002 495.0399999999998 530.0600000000002 507.9599999999999S518.5000000000001 531.76 505.5800000000002 531.76L505.5800000000002 531.76zM759.2200000000001 471.9200000000001C746.3000000000001 471.9200000000001 735.4200000000002 482.8000000000001 735.4200000000002 495.72V523.6C734.0600000000002 536.52 743.5800000000002 548.76 756.5000000000001 550.1200000000001C769.4200000000002 551.48 781.6600000000001 541.96 783.0200000000001 529.0400000000001C783.0200000000001 527.6800000000001 783.0200000000001 525.6400000000001 783.0200000000001 524.2800000000001V496.4000000000001C783.0200000000001 482.8000000000001 772.1400000000002 471.9200000000001 759.2200000000001 471.9200000000001z" />
    <glyph glyph-name="checkmark"
      unicode="&#xE02A;"
      horiz-adv-x="1020" d="M901.46484375 819.78515625L350.625 268.9453125L118.53515625 501.03515625L72.71484375 455.21484375L327.71484375 200.21484375L350.625 178.30078125L373.53515625 200.21484375L947.28515625 773.96484375L901.46484375 819.78515625z" />
    <glyph glyph-name="chevron-down"
      unicode="&#xE02B;"
      horiz-adv-x="1020" d="M510.2549999999999 224.4000000000001A7 7 0 0 0 459.2549999999999 244.8000000000001L30.855 673.2A7 7 0 1 0 131.835 774.1800000000001L510.2549999999999 396.78L888.1649999999998 775.2A7 7 0 1 0 989.145 674.22L560.745 245.8200000000001A7 7 0 0 0 510.2549999999999 224.4000000000001z" />
    <glyph glyph-name="chevron-up"
      unicode="&#xE02C;"
      horiz-adv-x="1020" d="M509.7449999999999 795.6A7 7 0 0 0 560.745 775.2L989.145 346.8000000000002A7 7 0 1 0 888.1649999999998 245.8200000000001L509.7449999999999 623.22L131.835 244.8000000000001A7 7 0 0 0 30.855 345.7800000000001L459.2549999999999 774.1800000000001A7 7 0 0 0 509.7449999999999 795.6z" />
    <glyph glyph-name="clock"
      unicode="&#xE02D;"
      horiz-adv-x="1020" d="M510 935C274.83333475 935 85 745.16666525 85 510C85 274.8333475000001 274.83333475 85 510 85C745.1666524999999 85 935 274.8333475000001 935 510C935 745.16666525 745.1666524999999 935 510 935zM510 850C699.8333475000001 850 850 699.83333475 850 510C850 320.1666525 699.8333475000001 170 510 170C320.16666525 170 170 320.1666525 170 510C170 699.83333475 320.16666525 850 510 850zM467.5 722.5L467.5 510L467.5 492.734375L479.453125 479.453125L606.953125 351.953125L668.046875 413.046875L552.5 528.59375L552.5 722.5L467.5 722.5z" />
    <glyph glyph-name="close"
      unicode="&#xE02E;"
      horiz-adv-x="1020" d="M186.7875 891.225L128.775 833.2125L451.9875 510.0000000000001L126.8625 184.2375000000001L184.2375 126.8625000000001L509.9999999999999 451.9875000000001L835.1249999999999 126.8625000000001L893.1374999999999 184.8750000000001L568.0124999999999 510.0000000000001L891.2249999999999 833.2125L833.2125 891.225L509.9999999999999 568.0125L186.7875 891.225z" />
    <glyph glyph-name="coins"
      unicode="&#xE02F;"
      horiz-adv-x="1020" d="M14.331 290.904H14.331A1.37 1.37 0 0 1 14.331 278.9700000000001V154.6320000000001C14.331 86.4960000000001 169.269 51.0000000000001 322.575 51.0000000000001C463.9469999999999 51.0000000000001 607.053 81.6 627.453 139.5360000000002C649.587 137.8020000000001 671.7209999999999 136.1700000000002 695.5889999999999 136.1700000000002C848.5889999999999 136.1700000000002 1003.833 171.9720000000002 1003.833 238.1700000000002L1002.201 346.8000000000002L1003.935 348.5340000000001V362.4060000000001L1002.201 479.91A3.79 3.79 0 0 1 1003.935 486.744L1002.201 604.248A7.23 7.23 0 0 1 1003.935 612.714V730.32H1003.935A3.4 3.4 0 0 1 1005.669 738.7860000000001L1002.201 856.8C1002.201 858.534 1003.935 863.634 1003.935 865.2660000000001C1003.833 932.994 850.5269999999999 969 697.323 969H697.323C544.0169999999999 969 390.711 931.26 390.711 863.226V738.888H390.711V631.5840000000001C368.577 633.318 346.443 628.2180000000001 322.575 628.2180000000001H322.575C171.003 628.2180000000001 15.963 597.618 15.963 529.4820000000001V415.2420000000001H15.963A2.64 2.64 0 0 1 15.963 403.308V291.108H14.331zM111.435 571.914A0.33 0.33 0 0 1 114.801 573.6479999999999A4.29 4.29 0 0 1 123.267 577.0139999999999A65.42 65.42 0 0 0 288.507 599.1479999999999H319.1070000000001C484.347 599.1479999999999 589.9169999999999 558.348 589.9169999999999 529.278V524.1779999999999C577.983 496.944 475.779 459.4079999999999 319.1070000000001 459.4079999999999C152.235 459.4079999999999 46.563 500.208 46.563 529.278A2.37 2.37 0 0 0 49.929 539.478A17.56 17.56 0 0 0 111.333 571.914zM968.235 359.04H968.235C945.999 326.4000000000001 840.3269999999999 294.27 695.5889999999999 294.27C670.0889999999999 294.27 649.587 294.27 629.187 296.004L627.453 387.804C647.853 387.804 669.9869999999999 389.538 692.223 389.538H692.223C794.223 389.538 910.197 404.838 966.3989999999998 442.374V372.504H968.133V359.0400000000001zM969.969 491.6399999999999H969.969L968.235 484.8059999999999C952.7309999999998 456.144 852.261 418.2000000000001 693.8549999999999 418.2000000000001C671.7209999999999 418.2000000000001 649.5869999999999 418.2000000000001 629.0849999999999 419.9340000000001L627.3509999999999 511.734C649.4849999999999 510.0000000000001 671.6189999999999 508.3680000000001 695.4869999999999 508.3680000000001C797.4869999999999 508.3680000000001 911.829 525.402 969.6629999999998 562.8360000000001V491.4360000000001zM320.841 427.1760000000001C429.879 427.1760000000001 538.8149999999999 445.9440000000001 593.385 480.0120000000001L595.119 405.0420000000001C595.119 376.0740000000002 487.815 335.1720000000001 320.9430000000001 335.1720000000001C130.2030000000001 335.1720000000001 48.3990000000001 384.5400000000001 48.3990000000001 405.0420000000001H48.3990000000001V481.644C101.133 445.8420000000001 211.905 427.1760000000001 320.841 427.1760000000001zM320.841 301.1040000000002C429.879 301.1040000000002 540.549 319.8720000000002 595.0169999999999 353.9400000000003V277.3380000000002C595.0169999999999 256.9380000000002 513.4169999999999 207.4680000000002 320.841 207.4680000000002S46.665 256.8360000000002 46.665 277.2360000000001H46.665V355.572C102.867 319.8720000000002 211.905 301.1040000000001 320.841 301.1040000000001zM322.575 84.7620000000001C130.101 84.7620000000001 48.399 134.1300000000001 48.399 154.6320000000001V229.6020000000001C102.867 193.8000000000001 211.599 175.1340000000001 322.575 175.1340000000001C431.613 175.1340000000001 540.549 193.9020000000002 595.119 227.9700000000001V153.0000000000001C595.1189999999999 134.232 513.3149999999999 84.7620000000001 322.575 84.7620000000001zM695.5889999999999 169.932C673.4549999999999 169.932 651.3209999999999 171.6660000000001 629.187 173.298L627.453 260.202C647.853 258.468 669.9869999999999 258.468 693.8549999999999 258.468C814.8269999999999 258.468 915.297 278.868 968.0309999999998 312.9359999999999L969.7649999999998 236.334C969.7649999999998 210.8340000000001 862.4609999999999 169.932 695.5889999999999 169.932zM423.045 738.888H423.045V815.49C475.881 779.688 586.245 761.0219999999999 697.2209999999999 761.0219999999999C806.2589999999999 761.0219999999999 915.195 779.79 969.7649999999998 813.858L971.499 738.8879999999999C971.499 709.9200000000001 864.1949999999999 669.018 697.323 669.018C504.8489999999999 669.018 423.1470000000001 718.386 423.1470000000001 738.8879999999999H423.1470000000001zM436.713 881.688A0.58 0.58 0 0 0 440.079 883.422A18.21 18.21 0 0 0 458.847 893.6220000000001H458.847L469.047 898.722C509.847 915.756 578.085 929.322 664.8870000000001 932.79H695.4870000000001C860.7270000000001 932.79 966.297 891.99 966.297 862.9200000000001V857.82C954.363 830.586 852.159 793.05 695.4870000000001 793.05C528.615 793.05 422.9430000000001 833.85 422.9430000000001 862.9200000000001A2 2 0 0 0 433.1430000000001 878.22zM423.045 689.4180000000001C477.513 653.6160000000001 586.245 636.5820000000001 695.5889999999999 636.5820000000001S915.297 655.3500000000001 969.7649999999998 689.4180000000001V616.182C969.7649999999998 614.4480000000001 968.0309999999998 612.816 968.0309999999998 611.0820000000001H968.0309999999998V609.3480000000001C950.9969999999998 577.014 843.6929999999999 542.9460000000001 693.8549999999999 542.9460000000001C669.9869999999999 542.9460000000001 646.1189999999999 544.6800000000001 622.4549999999999 546.3120000000001C605.4209999999999 588.846 521.9849999999999 616.182 421.515 627.912V689.1120000000001H423.249z" />
    <glyph glyph-name="cold"
      unicode="&#xE030;"
      horiz-adv-x="1020" d="M532.8199791883453 430.3954214360041L571.5608740894902 408.1061394380853C576.3371488033299 405.4526534859521 581.6441207075964 403.8605619146721 586.9510926118626 403.8605619146721C597.5650364203955 403.8605619146721 608.1789802289281 409.1675338189385 613.4859521331946 419.2507804370447C621.9771071800208 434.1103017689907 617.200832466181 452.684703433923 602.3413111342352 461.7065556711758L564.1311134235173 483.9958376690946C569.9687825182102 500.4474505723205 573.1529656607702 517.4297606659729 573.1529656607702 535.4734651404787C573.1529656607702 553.5171696149844 569.4380853277837 570.4994797086367 564.1311134235173 586.9510926118626L602.3413111342352 609.2403746097815C617.2008324661813 617.7315296566077 621.9771071800208 636.8366285119668 613.4859521331946 651.6961498439126C604.9947970863684 666.5556711758585 585.8896982310096 671.3319458896983 571.0301768990635 662.8407908428719L532.8199791883455 640.5515088449531C510.0000000000001 666.5556711758585 479.2195629552551 685.6607700312175 443.6628511966702 692.5598335067638V811.4360041623308L547.1488033298647 914.9219562955254C559.3548387096776 927.1279916753382 559.3548387096776 946.7637877211238 547.1488033298647 958.43912591051C534.942767950052 970.6451612903226 515.3069719042664 970.6451612903226 503.6316337148805 958.43912591051L444.193548387097 899.0010405827263V989.219562955255C444.193548387097 1006.2018730489074 430.3954214360043 1020 413.4131113423518 1020C396.4308012486995 1020 382.6326742976067 1006.2018730489074 382.6326742976067 989.219562955255V898.4703433922997L322.6638917793965 958.43912591051C310.4578563995837 970.6451612903226 290.8220603537981 970.6451612903226 279.146722164412 958.43912591051C266.9406867845994 946.2330905306972 266.9406867845994 926.5972944849116 279.146722164412 914.9219562955254L382.1019771071799 811.4360041623308V692.5598335067638C346.5452653485952 685.6607700312175 315.7648283038501 666.5556711758584 292.9448491155045 640.5515088449531L189.4588969823101 699.9895941727367L151.7793964620188 841.6857440166493C147.5338189386057 858.1373569198752 130.5515088449532 868.2206035379813 114.0998959417274 863.4443288241415C97.6482830385016 859.1987513007284 87.5650364203955 842.216441207076 92.3413111342353 825.7648283038502L114.0998959417274 744.0374609781477L35.0260145681582 789.6774193548387C20.1664932362123 798.1685744016648 1.5920915712799 793.3922996878251 -7.4297606659729 778.5327783558793C-15.9209157127991 763.6732570239334 -11.1446409989594 745.098855359001 3.7148803329864 736.0770031217481L82.258064516129 690.9677419354839L1.5920915712799 668.1477627471384C-14.8595213319459 663.9021852237253 -24.9427679500521 646.9198751300728 -20.1664932362123 630.4682622268471C-16.4516129032258 616.6701352757545 -4.2455775234131 607.6482830385016 9.5525494276794 607.6482830385016C12.2060353798126 607.6482830385016 14.8595213319458 608.1789802289281 17.513007284079 608.7096774193549L158.678459937565 646.3891779396463L262.1644120707596 586.4203954214361C256.8574401664932 570.4994797086368 253.1425598335067 552.9864724245579 253.1425598335067 534.942767950052C253.1425598335067 516.8990634755462 256.8574401664932 499.3860561914672 262.1644120707596 483.465140478668L159.2091571279917 424.0270551508845L17.513007284079 461.7065556711758C1.0613943808533 465.952133194589 -15.9209157127992 456.3995837669094 -20.1664932362123 439.9479708636836C-24.4120707596254 423.4963579604579 -14.8595213319459 406.5140478668053 1.5920915712799 402.2684703433923L83.3194588969823 380.5098855359002L4.2455775234131 334.869927159209C-10.6139438085328 326.3787721123828 -15.3902185223726 307.2736732570238 -6.8990634755463 292.4141519250778C-1.0613943808533 282.3309053069717 9.0218522372528 277.0239334027053 19.6357960457856 277.0239334027053C24.942767950052 277.0239334027053 30.2497398543184 278.6160249739853 35.0260145681582 281.2695109261184L113.5691987513007 326.9094693028094L91.8106139438086 245.7127991675336C87.5650364203955 229.2611862643078 97.117585848075 212.2788761706553 113.5691987513007 208.0332986472422C116.2226847034339 207.5026014568156 118.8761706555671 206.9719042663891 121.5296566077003 206.9719042663891C135.3277835587929 206.9719042663891 147.5338189386057 215.9937565036419 151.2486992715921 229.7918834547346L188.9281997918834 370.9573361082206L292.4141519250781 430.9261186264308C315.2341311134236 404.9219562955255 346.0145681581686 385.8168574401665 381.0405827263267 378.9177939646202V259.5109261186264L277.5546305931322 156.0249739854318C265.3485952133195 143.818938605619 265.3485952133195 124.1831425598334 277.5546305931322 112.5078043704474C283.3922996878252 106.6701352757543 291.3527575442247 103.4859521331946 299.3132154006243 103.4859521331946S315.2341311134235 106.6701352757543 321.0718002081165 112.5078043704474L381.0405827263267 172.4765868886576V81.7273673257024C381.0405827263267 64.7450572320501 394.8387096774193 50.9469302809573 411.8210197710718 50.9469302809573C428.8033298647243 50.9469302809573 442.601456815817 64.7450572320498 442.601456815817 81.7273673257024V172.4765868886576L502.0395421436005 113.0385015608741C514.2455775234132 100.8324661810614 533.8813735691988 100.8324661810614 545.5567117585847 113.0385015608741C557.7627471383976 125.2445369406869 557.7627471383976 144.8803329864725 545.5567117585847 156.5556711758585L444.1935483870968 259.5109261186264V378.3870967741936C479.2195629552549 385.2861602497398 510.0000000000001 404.3912591050989 532.8199791883453 430.3954214360041zM314.7034339229969 535.4734651404787C314.7034339229969 589.6045785639958 358.7513007284079 633.6524453694069 412.8824141519251 633.6524453694069C467.0135275754422 633.6524453694069 511.0613943808533 589.6045785639958 511.0613943808533 535.4734651404787C511.0613943808533 481.3423517169615 467.0135275754422 437.2944849115504 412.8824141519251 437.2944849115504C358.7513007284079 437.2944849115504 314.7034339229969 481.3423517169615 314.7034339229969 535.4734651404787zM956.316337148803 407.0447450572321V776.4099895941728C956.316337148803 857.0759625390219 891.0405827263266 922.3517169614984 810.3746097814776 922.3517169614984C729.7086368366286 922.3517169614984 664.4328824141519 857.0759625390219 664.4328824141519 776.4099895941728V407.0447450572321C611.8938605619146 363.5275754422478 580.5827263267429 298.251821019771 580.5827263267429 229.7918834547346C580.5827263267429 102.9552549427679 683.537981269511 0 810.3746097814776 0C937.2112382934442 0 1040.1664932362123 102.955254942768 1040.1664932362123 229.7918834547347C1040.1664932362123 299.3132154006243 1009.3860561914674 362.996878251821 956.316337148803 407.0447450572321zM810.3746097814776 61.5608740894899C718.0332986472424 61.5608740894899 642.6742976066598 136.9198751300726 642.6742976066598 229.2611862643078C642.6742976066598 282.8616024973983 668.6784599375651 333.8085327783556 711.664932362123 365.1196670135274C715.9105098855362 368.3038501560873 719.6253902185224 372.5494276795004 721.7481789802289 377.3257023933402L723.3402705515089 381.0405827263266C724.9323621227888 385.2861602497398 725.9937565036421 389.5317377731529 725.9937565036421 393.7773152965659V775.879292403746C725.9937565036421 822.0499479708636 763.6732570239335 860.2601456815815 810.3746097814778 860.2601456815815S894.7554630593133 822.5806451612902 894.7554630593133 775.879292403746V390.0624349635794C894.7554630593133 378.3870967741934 901.6545265348598 367.7731529656607 912.2684703433926 362.4661810613942L913.8605619146724 361.9354838709676C955.2549427679502 329.5629552549426 978.6056191467226 281.8002081165451 978.6056191467226 229.2611862643078C978.0749219562956 136.9198751300727 902.715920915713 61.5608740894899 810.3746097814776 61.5608740894899zM841.1550468262226 332.7471383975026V433.0489073881374C841.1550468262226 450.0312174817898 827.35691987513 463.8293444328825 810.3746097814776 463.8293444328825C793.3922996878252 463.8293444328825 779.5941727367324 450.0312174817899 779.5941727367324 433.0489073881374V332.7471383975026C733.423517169615 319.4797086368366 699.4588969823099 277.0239334027055 699.4588969823099 226.6077003121748C699.4588969823099 165.5775234131113 749.3444328824141 115.6919875130071 810.3746097814776 115.6919875130071S921.2903225806448 165.5775234131113 921.2903225806448 226.6077003121748C921.2903225806454 277.0239334027055 887.3257023933402 318.9490114464099 841.1550468262226 332.7471383975026z" />
    </font>
</defs>
</svg>
