<svg version="1" id="Layer_1" xmlns="http://www.w3.org/2000/svg" viewBox="0 0 1024 236.3"><style>.st0{fill:#fff}.st1{fill:#973794}.st2{fill:#fc3}.st3{fill:#71c8f0}</style><path class="st0" d="M469.8 211.7c2.5 0 4.7-1 6.2-2.7.1-.1.2-.3.3-.4 8.4-9.7 13.6-22.4 13.8-36.2V72.6c0-4.7-3.8-8.4-8.4-8.4-4.7 0-8.4 3.8-8.4 8.4v99.6c-.1 9.7-3.7 18.6-9.6 25.4l-.3.3c-1.2 1.5-1.9 3.3-1.9 5.4-.2 4.6 3.6 8.4 8.3 8.4M443.4 64.1h-47.1c-31.2 0-56.5 25.3-56.5 56.5s25.3 56.6 56.6 56.6c15.5 0 29.5-6.2 39.7-16.3v7.8c0 4.7 3.8 8.4 8.4 8.4 4.7 0 8.4-3.8 8.4-8.4V73.6c0-5.2-4.3-9.5-9.5-9.5m-7.4 53.7v3.4c-.3 21.7-17.9 39.1-39.7 39.1-21.9 0-39.7-17.8-39.7-39.7s17.7-39.7 39.6-39.7h33.1c3.7 0 6.6 3 6.6 6.7v30.2h.1zm174.6-53.7h-47.1c-31.2 0-56.5 25.3-56.5 56.5s25.3 56.6 56.5 56.6c15.5 0 29.5-6.2 39.7-16.3v7.8c0 4.7 3.8 8.4 8.4 8.4 4.7 0 8.4-3.8 8.4-8.4V73.6c.1-5.2-4.2-9.5-9.4-9.5m-7.4 53.7v3.4c-.3 21.7-17.9 39.1-39.7 39.1-21.9 0-39.7-17.8-39.7-39.7s17.7-39.7 39.6-39.7h33c3.7 0 6.7 3 6.7 6.7v5.2l.1 25zm363.5-53.7h-47.1c-31.2 0-56.5 25.3-56.5 56.5s25.3 56.6 56.6 56.6c15.5 0 29.5-6.2 39.7-16.3v7.8c0 4.7 3.8 8.4 8.4 8.4 4.7 0 8.4-3.8 8.4-8.4V73.6c0-5.2-4.3-9.5-9.5-9.5m-7.4 53.7v3.4c-.3 21.7-17.9 39.1-39.7 39.1-21.9 0-39.7-17.8-39.7-39.7s17.7-39.7 39.6-39.7h33.1c3.7 0 6.6 3 6.6 6.7v30.2h.1zm-628-53.7h-13.9V36.7c0-4.7-3.8-8.4-8.4-8.4-4.7 0-8.4 3.8-8.4 8.4v27.4h-13.9c-4.7 0-8.4 3.8-8.4 8.4 0 4.7 3.8 8.4 8.4 8.4h13.9v59.6c.2 13.8 5.3 26.5 13.8 36.2.1.1.2.3.3.4 1.5 1.7 3.8 2.7 6.2 2.7 4.7 0 8.4-3.8 8.4-8.4 0-2-.7-3.9-1.9-5.4l-.3-.3c-5.9-6.8-9.5-15.7-9.6-25.4V81h13.9c4.7 0 8.4-3.8 8.4-8.4 0-4.7-3.8-8.5-8.5-8.5m159.8-26.4c0 5.2-4.2 9.5-9.5 9.5-5.2 0-9.5-4.2-9.5-9.5 0-5.2 4.2-9.5 9.5-9.5 5.3.1 9.5 4.3 9.5 9.5m346.7 26.4c-4.7 0-8.5 3.8-8.5 8.4v48.1c0 21.9-17.8 39.6-39.7 39.6-21.6 0-39.1-17.2-39.6-38.7V72.6c0-4.7-3.8-8.4-8.4-8.4-4.7 0-8.4 3.8-8.4 8.4v49.1c-.6 21.4-18.1 38.6-39.6 38.6-21.9 0-39.6-17.7-39.7-39.6V72.6c0-4.7-3.8-8.4-8.4-8.4-4.7 0-8.4 3.8-8.4 8.4v48.1c0 31.2 25.3 56.5 56.5 56.5 20.3 0 38.1-10.7 48.1-26.8 10 16.1 27.8 26.8 48.1 26.8 31.1 0 56.3-25.1 56.5-56.1V72.6c-.1-4.7-3.9-8.5-8.5-8.5m175.6 115.8c-2.5 0-4.7-1-6.2-2.7-.1-.1-.2-.3-.3-.4-8.4-9.7-13.6-22.4-13.8-36.2V36.7c0-4.7 3.8-8.4 8.4-8.4 4.7 0 8.4 3.8 8.4 8.4v103.6c.1 9.7 3.7 18.6 9.6 25.4l.3.3c1.2 1.5 1.9 3.3 1.9 5.4.1 4.7-3.7 8.5-8.3 8.5M234 37.9c0-19.3-15.7-35-35.1-35h-81.1c-64.1 0-116 51.8-116 115.6s52 115.6 116.1 115.6c63.6 0 115.2-50.9 116.1-114V37.9c0 .1 0 0 0 0zm-17.2 81.9c-.8 53.7-44.7 97.1-98.9 97.1-54.6 0-98.9-44.1-98.9-98.4s44.2-98.4 98.8-98.4h81c9.9 0 18 8.1 18 17.9v81.8z"/><path class="st1" d="M176.7 36.7h-54.9v77.8H200V50.9c0-7.8-6.4-14.2-14.2-14.2h-9.1z"/><path class="st2" d="M114 36.7c-20.3 0-38.7 7.7-52.6 20.2-15.7 14.2-25.6 34.8-25.6 57.6H114V36.7z"/><path class="st3" d="M121.9 200c20.1 0 38.3-7.5 52.2-19.9 15.7-14 25.6-34.2 25.9-56.7v-1.1h-78.1V200z"/></svg>