<svg id="Layer_1" xmlns="http://www.w3.org/2000/svg" viewBox="-340 338.7 510.2 159"><style>.st0{fill:#fff}.st1{fill:#6cf}.st2{fill:#fc3}.st3{fill:#939}</style><path class="st0" d="M-316.5 451.5v-.4m217.9 24.4c-3.5 0-6.1 2.6-6.1 6.1 0 3.5 2.6 6.1 6.1 6.1s6.1-2.6 6.1-6.1c0-3.5-2.6-6.1-6.1-6.1zm85.9-115.2c3.5 0 6.1-2.6 6.1-6.1 0-3.5-2.6-6.1-6.1-6.1s-6.1 2.6-6.1 6.1c-.2 3.5 2.5 6.1 6.1 6.1zm0 5.4c-3.5 0-6.1 2.6-6.1 6.1 0 3.5 2.6 6.1 6.1 6.1s6.1-2.6 6.1-6.1c0-3.5-2.6-6.1-6.1-6.1zm0 19.3c-3.1 0-5.7 2.6-5.7 5.7v30.9c0 14.1-11.5 25.2-25.2 25.2H-73c6.3-6.4 10.4-15.3 10.5-25.1V391c0-3.3-2.7-6.1-6.1-6.1H-99c-20.1 0-36.3 16.3-36.3 36.3 0 3 2.4 5.4 5.4 5.4 3 0 5.4-2.4 5.4-5.4 0-14.1 11.4-25.6 25.5-25.6h21.2c2.3 0 4.3 1.9 4.3 4.2v21.6c-.2 13.9-11.5 25.2-25.5 25.2h-80.5v-55.5c0-3.5-2.6-6.1-6.1-6.1H-216c-19.8 0-36.1 16.3-36.1 36.5 0 19.8 16.3 36.1 36.1 36.1 10.2 0 18.9-3.9 25.6-10.6v10.6c0 11.9-6.6 18.9-20.7 18.9-3.1 0-5.3 2.6-5.3 5.3 0 3.1 2.2 5.7 5.3 5.7 19.8 0 31.7-11.9 31.7-30h135.8c19.8 0 35.7-15.9 36.1-35.7v-31.3c0-2.7-2.6-5.5-5.2-5.5zm-177.9 36.7c0 14.1-11.5 25.2-25.6 25.2s-25.2-11-25.2-25.2c0-14.1 11-25.6 25.2-25.6h21.1c2.6 0 4.4 1.7 4.4 4.4.1.1.1 21.2.1 21.2zm-5.5-60.2c1.7 0 3.4-.6 4.6-1.8 1.3 1.1 2.9 1.8 4.6 1.8 3.7 0 6.8-3 6.9-6.8v-4.8c0-1.3-1-2.3-2.3-2.3s-2.3 1-2.3 2.3v4.6c0 1.3-1.1 2.3-2.3 2.3-1.3 0-2.3-1-2.3-2.2v-4.8c0-1.2-1-2.3-2.3-2.3s-2.3 1-2.3 2.3v4.7c0 1.3-1.1 2.3-2.3 2.3-1.3 0-2.3-1-2.3-2.3v-4.6c0-1.3-1-2.3-2.3-2.3s-2.3 1-2.3 2.3v4.6c0 3.9 3.1 7 6.9 7zm-72.7-14.4c-3 0-5.5 2.5-5.5 5.5v99c-.4 14-11.8 25.2-25.9 25.2-14.3 0-25.9-11.6-25.9-25.9V431c0-3-2.4-5.5-5.5-5.5-3 0-5.5 2.5-5.5 5.5v19.9c0 20.4 16.5 37 37 37 13.3 0 24.9-6.9 31.4-17.5 3.5-5.6 5.5-12.3 5.5-19.4v-98.3c-.2-3.1-2.6-5.6-5.6-5.6zm428.2 22.2v52.6c-.5 33.9-28.1 61.2-62 61.2-34.2 0-62.1-27.8-62.1-62.1 0-34.2 27.8-62 62-62.1h51.8c5.7.1 10.3 4.7 10.3 10.4m-1.4-21.2H97.3c-40.3 0-72.9 32.6-72.9 72.9s32.6 72.9 72.9 72.9c40 0 72.4-32.1 72.9-71.9v-61.8c0-6.6-5.4-12.1-12.2-12.1"/><path class="st1" d="M99.8 423.5v48.4c26.2-1.3 47.1-22.3 48.5-48.4H99.8z"/><path class="st2" d="M94.9 418.6v-48.9c-26.5 1.2-47.7 22.5-48.8 48.9h48.8z"/><path class="st3" d="M148.4 418.6v-40.3c0-4.7-3.8-8.6-8.6-8.6H99.7v48.9h48.7z"/></svg>